<?xml version="1.0" encoding="UTF-8" standalone="no"?>
<!-- Created with Inkscape (http://www.inkscape.org/) -->

<svg
   xmlns:dc="http://purl.org/dc/elements/1.1/"
   xmlns:cc="http://creativecommons.org/ns#"
   xmlns:rdf="http://www.w3.org/1999/02/22-rdf-syntax-ns#"
   xmlns:svg="http://www.w3.org/2000/svg"
   xmlns="http://www.w3.org/2000/svg"
   xmlns:sodipodi="http://sodipodi.sourceforge.net/DTD/sodipodi-0.dtd"
   xmlns:inkscape="http://www.inkscape.org/namespaces/inkscape"
   width="375"
   height="375"
   viewBox="0 0 99.218747 99.218751"
   version="1.1"
   id="svg8"
   inkscape:version="0.92.2 (5c3e80d, 2017-08-06)"
   sodipodi:docname="pen_black_angular.svg">
  <title
     id="title817">pen_scetch</title>
  <defs
     id="defs2" />
  <sodipodi:namedview
     id="base"
     pagecolor="#ffffff"
     bordercolor="#666666"
     borderopacity="1.0"
     inkscape:pageopacity="0.0"
     inkscape:pageshadow="2"
     inkscape:zoom="0.94"
     inkscape:cx="350"
     inkscape:cy="223.45197"
     inkscape:document-units="mm"
     inkscape:current-layer="layer1"
     showgrid="false"
     units="px"
     inkscape:object-nodes="false"
     inkscape:window-width="1920"
     inkscape:window-height="1005"
     inkscape:window-x="-9"
     inkscape:window-y="-9"
     inkscape:window-maximized="1" />
  <metadata
     id="metadata5">
    <rdf:RDF>
      <cc:Work
         rdf:about="">
        <dc:format>image/svg+xml</dc:format>
        <dc:type
           rdf:resource="http://purl.org/dc/dcmitype/StillImage" />
        <dc:title>pen_scetch</dc:title>
      </cc:Work>
    </rdf:RDF>
  </metadata>
  <g
     inkscape:label="Layer 1"
     inkscape:groupmode="layer"
     id="layer1"
     transform="translate(0,-197.78123)">
    <g
       id="g896"
       transform="matrix(-0.27825132,0.36040755,-0.36040755,-0.27825132,127.0132,269.63384)">
      <g
         id="g862">
        <path
           style="opacity:1;fill:none;fill-opacity:1;stroke:#000000;stroke-width:3.38689899;stroke-linecap:round;stroke-linejoin:round;stroke-miterlimit:4;stroke-dasharray:none;stroke-opacity:1"
           d="M 58.643142,164.73743 H 72.656325 V 282.51237 H 58.643142 Z"
           id="rect815"
           inkscape:connector-curvature="0"
           sodipodi:nodetypes="ccccc" />
        <path
           style="opacity:1;fill:none;fill-opacity:1;stroke:#000000;stroke-width:3.38689899;stroke-linecap:round;stroke-linejoin:round;stroke-miterlimit:4;stroke-dasharray:none;stroke-opacity:1"
           d="m 72.656329,164.73744 14.013183,-7.04642 v 117.77494 l -14.013183,7.04642 z"
           id="rect822"
           inkscape:connector-curvature="0"
           sodipodi:nodetypes="ccccc" />
        <path
           style="opacity:1;fill:none;fill-opacity:1;stroke:#000000;stroke-width:3.38689899;stroke-linecap:round;stroke-linejoin:round;stroke-miterlimit:4;stroke-dasharray:none;stroke-opacity:1"
           d="m 58.643142,164.73744 -14.013185,-7.04642 v 117.77493 l 14.013185,7.04642 z"
           id="rect826"
           inkscape:connector-curvature="0"
           sodipodi:nodetypes="ccccc" />
        <path
           style="fill:none;stroke:#000000;stroke-width:3.96875;stroke-linecap:round;stroke-linejoin:miter;stroke-miterlimit:4;stroke-dasharray:none;stroke-opacity:1"
           d="m 44.629955,157.69102 21.350513,-29.43489 20.689042,29.4349"
           id="path846"
           inkscape:connector-curvature="0"
           sodipodi:nodetypes="ccc" />
        <path
           style="opacity:1;fill:none;fill-opacity:1;stroke:#000000;stroke-width:3.96875;stroke-linecap:round;stroke-linejoin:round;stroke-miterlimit:4;stroke-dasharray:none;stroke-opacity:1"
           id="path851"
           d="m 65.714789,131.76006 c 0.667369,-0.14659 1.342028,-0.30563 2.022261,-0.16885 0.446852,0.0949 0.777833,0.34374 0.988721,0.74277 0.121447,0.26426 0.122788,0.50585 0.0269,0.77351 0,0 -3.173063,1.35378 -3.173063,1.35378 v 0 c 0.205211,-0.0865 0.237871,-0.20684 0.155258,-0.41815 -0.15701,-0.31025 -0.470043,-0.42561 -0.802328,-0.47292 -0.66252,-0.0443 -1.309545,0.11206 -1.947469,0.27717 0,0 2.729725,-2.08731 2.729725,-2.08731 z"
           inkscape:connector-curvature="0" />
      </g>
      <g
         id="g885">
        <g
           id="g881">
          <path
             inkscape:connector-curvature="0"
             d="m 65.34501,135.48879 c 0.09524,0.0382 0.189574,0.0788 0.285729,0.11468 0.170677,0.0637 0.505248,0.17767 0.681384,0.2206 0.103439,0.0252 0.420685,0.0554 0.314233,0.0573 -4.068041,0.0696 -4.802955,0.21391 -3.469103,-0.03 0.08139,-0.0289 0.09777,-0.0742 0.01614,-0.0899 1.27852,0.003 2.557068,2e-5 3.835564,0.008 0.08955,5.8e-4 -0.176858,0.0323 -0.261458,0.0617 -0.302636,0.0882 -0.50513,0.32424 -0.701093,0.55635 -1.308659,-0.0528 -2.619539,-0.0657 -3.925975,-0.15841 -0.04189,-0.003 -0.01349,-0.0837 -0.03002,-0.12236 -0.01421,-0.0332 -0.03453,-0.0649 -0.06075,-0.0897 -0.01913,-0.0181 -0.09728,-0.0352 -0.07092,-0.035 3.878913,0.0324 4.731472,-0.77956 3.688688,0.16067 -0.141086,0.13571 -0.342011,0.4287 -0.03745,0.46586 -1.260824,-0.009 -2.521857,-0.003 -3.78247,-0.0275 -0.05717,-10e-4 0.110469,-0.0296 0.165881,-0.0437 0.193616,-0.0493 0.378116,-0.0965 0.579207,-0.0963 1.362361,0.001 2.724711,0.007 4.087066,0.0108 -0.545896,0.007 1.348727,0.0735 0.798944,0.0736 -3.872875,4.3e-4 -4.926007,0.17736 -3.526279,-0.0444 1.443741,-0.19397 3.135696,-0.0319 4.419497,-0.0223 0.05678,4.2e-4 0.226081,0.0186 0.169301,0.0188 -3.977994,0.012 -4.947327,0.12213 -3.52979,-0.0287 1.629743,-0.44902 3.372797,-0.26243 5.046668,-0.11622 0.03791,0.002 0.07583,0.005 0.113741,0.007 -1.293347,-0.0368 -2.588006,-0.0413 -3.880035,-0.11024 -0.03431,-0.002 -0.01749,-0.0667 -0.03091,-0.0983 -0.01595,-0.0375 -0.03314,-0.0752 -0.0569,-0.10832 -0.05556,-0.0775 -0.128548,-0.14097 -0.191738,-0.21242 0,0 3.908555,0 3.908555,0 v 0 c 1.2985,1.43453 -2.084309,0.57621 -3.768223,0.52211 -1.392158,-0.12458 -0.346035,-0.0257 3.54964,-0.041 0.06198,-2.4e-4 -0.12396,0.005 -0.185534,0.0124 -0.20833,0.024 -0.401394,0.0968 -0.604462,0.14484 -1.536919,0.1654 -0.296431,0.0387 -4.275844,0.0287 -0.05723,-1.4e-4 -0.227864,-0.0183 -0.170643,-0.0188 1.247593,-0.011 2.495264,-0.009 3.742902,-0.0127 0.118613,-3.4e-4 -0.506458,-0.003 -0.354116,0.035 -1.674212,0.26417 -3.394932,0.13867 -5.077018,-0.0292 1.238991,-0.004 2.477979,-0.01 3.716975,-0.0108 0.06321,-6e-5 -0.126786,-4.7e-4 -0.189492,0.008 -0.175921,0.0224 -0.371382,0.1295 -0.546105,0.13246 -1.348912,0.0228 -2.698147,0.0184 -4.047223,0.0276 -0.311078,-0.0356 -0.08568,-0.32423 0.04564,-0.46586 1.101725,-0.99658 0.09756,-0.13 4.143394,-0.16068 0.09713,-7.4e-4 0.15544,0.2464 0.146859,0.24702 -1.29858,0.094 -2.601814,0.10561 -3.902723,0.15841 0.224764,-0.20631 0.399119,-0.47403 0.712031,-0.55635 1.340789,-0.47221 2.842453,-0.0703 4.263967,-0.0702 0.107206,1e-5 0.0195,0.11019 -0.03865,0.0899 -1.934007,0.32339 -3.83652,0.35142 -5.614723,-0.36256 0,0 3.897638,0 3.897638,0 z"
             id="path878"
             style="opacity:1;fill:none;fill-opacity:1;stroke:#000000;stroke-width:3.96875;stroke-linecap:round;stroke-linejoin:round;stroke-miterlimit:4;stroke-dasharray:none;stroke-opacity:1" />
        </g>
      </g>
    </g>
    <path
       style="fill:none;stroke:#000000;stroke-width:1.80705607;stroke-linecap:butt;stroke-linejoin:miter;stroke-miterlimit:4;stroke-dasharray:none;stroke-opacity:1"
       d="m 64.009234,258.79518 5.185601,4.7399 -8.461703,8.64749 4.300115,4.88391 20.942412,-21.32458 6.232617,6.38743 -12.54548,13.07715 14.126609,-2.55726"
       id="path827"
       inkscape:connector-curvature="0" />
  </g>
</svg>
