<?xml version="1.0" encoding="UTF-8" standalone="no"?>
<!-- Created with Inkscape (http://www.inkscape.org/) -->

<svg
   xmlns:dc="http://purl.org/dc/elements/1.1/"
   xmlns:cc="http://creativecommons.org/ns#"
   xmlns:rdf="http://www.w3.org/1999/02/22-rdf-syntax-ns#"
   xmlns:svg="http://www.w3.org/2000/svg"
   xmlns="http://www.w3.org/2000/svg"
   xmlns:sodipodi="http://sodipodi.sourceforge.net/DTD/sodipodi-0.dtd"
   xmlns:inkscape="http://www.inkscape.org/namespaces/inkscape"
   width="250"
   height="250"
   viewBox="0 0 66.145832 66.145835"
   version="1.1"
   id="svg2027"
   inkscape:version="0.92.2 (5c3e80d, 2017-08-06)"
   sodipodi:docname="paint_bucket_blue.svg">
  <title
     id="title2643">simple_bucket_black</title>
  <defs
     id="defs2021" />
  <sodipodi:namedview
     id="base"
     pagecolor="#ffffff"
     bordercolor="#666666"
     borderopacity="1.0"
     inkscape:pageopacity="0.0"
     inkscape:pageshadow="2"
     inkscape:zoom="3.008"
     inkscape:cx="7.372855"
     inkscape:cy="121.14256"
     inkscape:document-units="mm"
     inkscape:current-layer="layer1"
     showgrid="false"
     inkscape:snap-intersection-paths="false"
     units="px"
     inkscape:window-width="1920"
     inkscape:window-height="1005"
     inkscape:window-x="-9"
     inkscape:window-y="-9"
     inkscape:window-maximized="1" />
  <metadata
     id="metadata2024">
    <rdf:RDF>
      <cc:Work
         rdf:about="">
        <dc:format>image/svg+xml</dc:format>
        <dc:type
           rdf:resource="http://purl.org/dc/dcmitype/StillImage" />
        <dc:title>simple_bucket_black</dc:title>
      </cc:Work>
    </rdf:RDF>
  </metadata>
  <g
     inkscape:label="Layer 1"
     inkscape:groupmode="layer"
     id="layer1"
     transform="translate(0,-230.85415)">
    <path
       style="fill:none;stroke:#000000;stroke-width:1.5;stroke-linecap:butt;stroke-linejoin:round;stroke-miterlimit:0;stroke-dasharray:none;stroke-opacity:1"
       d="m 49.01729,246.7207 c 0.166738,12.2553 0.508056,37.34221 0.500218,36.76589"
       id="path2574"
       inkscape:connector-curvature="0"
       sodipodi:nodetypes="cc" />
    <path
       style="fill:none;stroke:#000000;stroke-width:1.5;stroke-linecap:round;stroke-linejoin:miter;stroke-miterlimit:4;stroke-dasharray:none;stroke-opacity:1"
       d="m 18.965094,283.44135 c 0.01233,0.0151 2.119934,1.867 5.452923,3.02935 3.33299,1.16234 7.891367,1.63521 10.349514,1.6548 4.127233,0.0329 7.990137,-0.52256 10.645824,-1.69052 2.655685,-1.16794 4.104153,-2.94839 4.104153,-2.94839"
       id="path2576"
       inkscape:connector-curvature="0"
       sodipodi:nodetypes="csssc" />
    <path
       sodipodi:nodetypes="cc"
       inkscape:connector-curvature="0"
       id="path2587"
       d="m 18.465478,245.79317 c 0.166537,12.5494 0.507446,38.23833 0.499616,37.64818"
       style="fill:none;stroke:#000000;stroke-width:1.5;stroke-linecap:butt;stroke-linejoin:miter;stroke-miterlimit:4;stroke-dasharray:none;stroke-opacity:1" />
    <ellipse
       style="opacity:1;fill:none;fill-opacity:0.34078214;stroke:#000000;stroke-width:1.5;stroke-linecap:butt;stroke-linejoin:miter;stroke-miterlimit:4;stroke-dasharray:none;stroke-opacity:0.97512434"
       id="path2589"
       cx="33.673622"
       cy="246.67909"
       rx="15.368972"
       ry="5.0244575" />
    <path
       style="opacity:1;fill:none;fill-opacity:0.34078214;stroke:#000000;stroke-width:1.5;stroke-linecap:round;stroke-linejoin:miter;stroke-miterlimit:4;stroke-dasharray:none;stroke-opacity:0.97512434"
       d="m 24.864297,263.71814 c 0,0 6.391183,1.89457 9.411708,1.89623 3.196413,0.002 9.235787,-1.89623 9.235787,-1.89623 v 3.99508 3.99508 c 0,0 -6.215697,1.81459 -9.411707,1.81372 -3.020099,-8.3e-4 -9.235788,-1.81372 -9.235788,-1.81372 v -3.99508 z"
       id="rect2591"
       inkscape:connector-curvature="0"
       sodipodi:nodetypes="cscccsccc" />
    <path
       style="opacity:1;fill:#afc6e9;fill-opacity:1;stroke:#000000;stroke-width:1.88473785;stroke-linecap:round;stroke-linejoin:round;stroke-miterlimit:4;stroke-dasharray:none;stroke-opacity:1"
       d=""
       id="path12025"
       inkscape:connector-curvature="0"
       transform="matrix(0.26458333,0,0,0.26458333,0,230.85415)" />
    <path
       style="opacity:1;fill:#afc6e9;fill-opacity:1;stroke:#000000;stroke-width:1.88473785;stroke-linecap:round;stroke-linejoin:round;stroke-miterlimit:4;stroke-dasharray:none;stroke-opacity:1"
       d="M 115.48456,75.402478 C 96.678947,74.135666 80.057618,69.377094 74.288996,63.608472 c -1.513217,-1.513217 -1.523854,-1.53973 -1.523854,-3.798489 0,-2.258812 0.0106,-2.285239 1.524095,-3.798731 7.137797,-7.137796 28.875533,-12.133128 52.887623,-12.153573 22.56301,-0.01921 43.52652,4.443637 51.79389,11.026219 3.95797,3.15138 4.34328,5.827788 1.26076,8.757436 -8.94876,8.504967 -37.11992,13.622196 -64.74695,11.761144 z"
       id="path12043"
       inkscape:connector-curvature="0"
       transform="matrix(0.26458333,0,0,0.26458333,0,230.85415)" />
    <path
       style="opacity:1;fill:#cedcf1;fill-opacity:1;stroke:#000000;stroke-width:1.88473785;stroke-linecap:round;stroke-linejoin:round;stroke-miterlimit:4;stroke-dasharray:none;stroke-opacity:1"
       d="M 122.46594,213.04911 C 107.6865,211.69365 94.61438,208.54077 85.865541,204.22141 82.095707,202.36022 75.378562,198.17515 74.888527,197.38225 74.661818,197.01543 73.151587,95.54886 73.11422,78.173498 l -0.01663,-7.733558 1.412899,0.893659 c 2.041123,1.29101 6.27386,3.195083 9.724069,4.374317 28.563392,9.762571 77.487572,7.327683 96.492682,-4.802305 l 1.74535,-1.113965 0.004,3.735897 c 0.002,2.054744 0.37466,30.140487 0.82709,62.412757 0.45242,32.27228 0.8244,59.43579 0.82661,60.36337 0.004,1.68253 -0.002,1.69143 -2.40621,3.76342 -7.94243,6.84402 -17.01547,10.39496 -31.57195,12.3564 -5.82949,0.7855 -21.96732,1.15016 -27.68669,0.62562 z m 17.7859,-49.96955 c 6.49443,-1.11875 14.2981,-2.87259 21.30174,-4.78749 l 5.79268,-1.5838 0.0859,-18.19648 c 0.0547,-11.57911 -0.0312,-18.19649 -0.23616,-18.19649 -0.17716,0 -2.75905,0.73206 -5.73754,1.6268 -6.58183,1.97719 -14.78849,4.0195 -21.04044,5.23613 -4.03718,0.78564 -5.46969,0.90572 -10.80452,0.90572 -5.32605,0 -6.77401,-0.12098 -10.80452,-0.90271 -5.74699,-1.11466 -17.91615,-4.07818 -23.301236,-5.67449 -2.210624,-0.65529 -4.118037,-1.19145 -4.238696,-1.19145 -0.12066,0 -0.219381,8.20286 -0.219381,18.22857 v 18.22856 l 1.412899,0.35158 c 0.777094,0.19336 4.629322,1.18568 8.560504,2.20515 18.94596,4.91324 27.64851,5.74523 39.22872,3.7504 z"
       id="path12045"
       inkscape:connector-curvature="0"
       transform="matrix(0.26458333,0,0,0.26458333,0,230.85415)" />
    <path
       style="opacity:1;fill:#ffffff;fill-opacity:1;stroke:#000000;stroke-width:1.88473785;stroke-linecap:round;stroke-linejoin:round;stroke-miterlimit:4;stroke-dasharray:none;stroke-opacity:1"
       d="m 124.2944,158.00941 c -4.83456,-0.53983 -14.85107,-2.59109 -22.6895,-4.64655 l -4.571141,-1.19868 v -11.91933 c 0,-6.55563 0.08083,-11.91933 0.179634,-11.91933 0.0988,0 2.864687,0.67429 6.146407,1.49841 7.56327,1.89933 16.43702,3.67175 20.9346,4.18142 7.67143,0.86934 17.3366,-0.45339 31.96404,-4.37446 2.67829,-0.71795 4.95971,-1.30537 5.06981,-1.30537 0.11011,0 0.20019,5.37206 0.20019,11.9379 v 11.9379 l -7.56316,1.84227 c -14.76126,3.5956 -23.05659,4.70436 -29.67088,3.96582 z"
       id="path12049"
       inkscape:connector-curvature="0"
       transform="matrix(0.26458333,0,0,0.26458333,0,230.85415)" />
    <path
       style="opacity:1;fill:#aec5e9;fill-opacity:1;stroke:#000000;stroke-width:1.88473785;stroke-linecap:round;stroke-linejoin:round;stroke-miterlimit:4;stroke-dasharray:none;stroke-opacity:1"
       d="M 118.47658,74.477961 C 103.75643,73.744236 88.868206,70.595162 80.677294,66.482869 77.656619,64.966322 76.480551,64.16017 74.842935,62.483627 c -0.927962,-0.95002 -1.080452,-1.341166 -1.080452,-2.771428 0,-1.569216 0.09615,-1.755562 1.666543,-3.229926 8.00768,-7.518005 34.507744,-12.578332 59.259374,-11.31589 20.27701,1.034217 35.76345,4.773089 43.29837,10.453468 3.43975,2.593144 3.95113,4.336979 1.92837,6.575928 -7.41837,8.211247 -34.49919,13.624974 -61.43856,12.282182 z"
       id="path12051"
       inkscape:connector-curvature="0"
       transform="matrix(0.26458333,0,0,0.26458333,0,230.85415)" />
  </g>
</svg>
