<?xml version="1.0" encoding="UTF-8" standalone="no"?>
<!-- Created with Inkscape (http://www.inkscape.org/) -->

<svg
   xmlns:dc="http://purl.org/dc/elements/1.1/"
   xmlns:cc="http://creativecommons.org/ns#"
   xmlns:rdf="http://www.w3.org/1999/02/22-rdf-syntax-ns#"
   xmlns:svg="http://www.w3.org/2000/svg"
   xmlns="http://www.w3.org/2000/svg"
   xmlns:sodipodi="http://sodipodi.sourceforge.net/DTD/sodipodi-0.dtd"
   xmlns:inkscape="http://www.inkscape.org/namespaces/inkscape"
   width="75"
   height="75"
   viewBox="0 0 19.843749 19.84375"
   version="1.1"
   id="svg8"
   inkscape:version="0.92.2 (5c3e80d, 2017-08-06)"
   sodipodi:docname="blue_pen_left_white.svg">
  <title
     id="title817">pen</title>
  <defs
     id="defs2" />
  <sodipodi:namedview
     id="base"
     pagecolor="#ffffff"
     bordercolor="#666666"
     borderopacity="1.0"
     inkscape:pageopacity="0.0"
     inkscape:pageshadow="2"
     inkscape:zoom="8"
     inkscape:cx="8.875"
     inkscape:cy="34.141085"
     inkscape:document-units="mm"
     inkscape:current-layer="layer1"
     showgrid="false"
     units="px"
     inkscape:object-nodes="false"
     inkscape:window-width="1900"
     inkscape:window-height="985"
     inkscape:window-x="1"
     inkscape:window-y="1"
     inkscape:window-maximized="1"
     showguides="false" />
  <metadata
     id="metadata5">
    <rdf:RDF>
      <cc:Work
         rdf:about="">
        <dc:format>image/svg+xml</dc:format>
        <dc:type
           rdf:resource="http://purl.org/dc/dcmitype/StillImage" />
        <dc:title>pen</dc:title>
      </cc:Work>
    </rdf:RDF>
  </metadata>
  <g
     inkscape:label="Layer 1"
     inkscape:groupmode="layer"
     id="layer1"
     transform="translate(0,-277.15623)">
    <g
       id="g896"
       transform="matrix(-0.0800584,0.04622174,-0.04622174,-0.0800584,22.303644,299.70229)">
      <g
         id="g862">
        <path
           style="opacity:1;fill:none;fill-opacity:1;stroke:#000000;stroke-width:3.38689899;stroke-linecap:round;stroke-linejoin:round;stroke-miterlimit:4;stroke-dasharray:none;stroke-opacity:1"
           d="M 58.643142,164.73743 H 72.656325 V 282.51237 H 58.643142 Z"
           id="rect815"
           inkscape:connector-curvature="0"
           sodipodi:nodetypes="ccccc" />
        <path
           style="opacity:1;fill:none;fill-opacity:1;stroke:#000000;stroke-width:3.38689899;stroke-linecap:round;stroke-linejoin:round;stroke-miterlimit:4;stroke-dasharray:none;stroke-opacity:1"
           d="m 72.656329,164.73744 14.013183,-7.04642 v 117.77494 l -14.013183,7.04642 z"
           id="rect822"
           inkscape:connector-curvature="0"
           sodipodi:nodetypes="ccccc" />
        <path
           style="opacity:1;fill:none;fill-opacity:1;stroke:#000000;stroke-width:3.38689899;stroke-linecap:round;stroke-linejoin:round;stroke-miterlimit:4;stroke-dasharray:none;stroke-opacity:1"
           d="m 58.643142,164.73744 -14.013185,-7.04642 v 117.77493 l 14.013185,7.04642 z"
           id="rect826"
           inkscape:connector-curvature="0"
           sodipodi:nodetypes="ccccc" />
        <path
           style="fill:none;stroke:#000000;stroke-width:3.96875;stroke-linecap:round;stroke-linejoin:miter;stroke-miterlimit:4;stroke-dasharray:none;stroke-opacity:1"
           d="m 44.629955,157.69102 21.350513,-29.43489 20.689042,29.4349"
           id="path846"
           inkscape:connector-curvature="0"
           sodipodi:nodetypes="ccc" />
        <path
           style="opacity:1;fill:none;fill-opacity:1;stroke:#000000;stroke-width:3.96875;stroke-linecap:round;stroke-linejoin:round;stroke-miterlimit:4;stroke-dasharray:none;stroke-opacity:1"
           id="path851"
           d="m 65.714789,131.76006 c 0.667369,-0.14659 1.342028,-0.30563 2.022261,-0.16885 0.446852,0.0949 0.777833,0.34374 0.988721,0.74277 0.121447,0.26426 0.122788,0.50585 0.0269,0.77351 0,0 -3.173063,1.35378 -3.173063,1.35378 v 0 c 0.205211,-0.0865 0.237871,-0.20684 0.155258,-0.41815 -0.15701,-0.31025 -0.470043,-0.42561 -0.802328,-0.47292 -0.66252,-0.0443 -1.309545,0.11206 -1.947469,0.27717 0,0 2.729725,-2.08731 2.729725,-2.08731 z"
           inkscape:connector-curvature="0" />
      </g>
      <g
         id="g885">
        <g
           id="g881">
          <path
             inkscape:connector-curvature="0"
             d="m 65.34501,135.48879 c 0.09524,0.0382 0.189574,0.0788 0.285729,0.11468 0.170677,0.0637 0.505248,0.17767 0.681384,0.2206 0.103439,0.0252 0.420685,0.0554 0.314233,0.0573 -4.068041,0.0696 -4.802955,0.21391 -3.469103,-0.03 0.08139,-0.0289 0.09777,-0.0742 0.01614,-0.0899 1.27852,0.003 2.557068,2e-5 3.835564,0.008 0.08955,5.8e-4 -0.176858,0.0323 -0.261458,0.0617 -0.302636,0.0882 -0.50513,0.32424 -0.701093,0.55635 -1.308659,-0.0528 -2.619539,-0.0657 -3.925975,-0.15841 -0.04189,-0.003 -0.01349,-0.0837 -0.03002,-0.12236 -0.01421,-0.0332 -0.03453,-0.0649 -0.06075,-0.0897 -0.01913,-0.0181 -0.09728,-0.0352 -0.07092,-0.035 3.878913,0.0324 4.731472,-0.77956 3.688688,0.16067 -0.141086,0.13571 -0.342011,0.4287 -0.03745,0.46586 -1.260824,-0.009 -2.521857,-0.003 -3.78247,-0.0275 -0.05717,-10e-4 0.110469,-0.0296 0.165881,-0.0437 0.193616,-0.0493 0.378116,-0.0965 0.579207,-0.0963 1.362361,0.001 2.724711,0.007 4.087066,0.0108 -0.545896,0.007 1.348727,0.0735 0.798944,0.0736 -3.872875,4.3e-4 -4.926007,0.17736 -3.526279,-0.0444 1.443741,-0.19397 3.135696,-0.0319 4.419497,-0.0223 0.05678,4.2e-4 0.226081,0.0186 0.169301,0.0188 -3.977994,0.012 -4.947327,0.12213 -3.52979,-0.0287 1.629743,-0.44902 3.372797,-0.26243 5.046668,-0.11622 0.03791,0.002 0.07583,0.005 0.113741,0.007 -1.293347,-0.0368 -2.588006,-0.0413 -3.880035,-0.11024 -0.03431,-0.002 -0.01749,-0.0667 -0.03091,-0.0983 -0.01595,-0.0375 -0.03314,-0.0752 -0.0569,-0.10832 -0.05556,-0.0775 -0.128548,-0.14097 -0.191738,-0.21242 0,0 3.908555,0 3.908555,0 v 0 c 1.2985,1.43453 -2.084309,0.57621 -3.768223,0.52211 -1.392158,-0.12458 -0.346035,-0.0257 3.54964,-0.041 0.06198,-2.4e-4 -0.12396,0.005 -0.185534,0.0124 -0.20833,0.024 -0.401394,0.0968 -0.604462,0.14484 -1.536919,0.1654 -0.296431,0.0387 -4.275844,0.0287 -0.05723,-1.4e-4 -0.227864,-0.0183 -0.170643,-0.0188 1.247593,-0.011 2.495264,-0.009 3.742902,-0.0127 0.118613,-3.4e-4 -0.506458,-0.003 -0.354116,0.035 -1.674212,0.26417 -3.394932,0.13867 -5.077018,-0.0292 1.238991,-0.004 2.477979,-0.01 3.716975,-0.0108 0.06321,-6e-5 -0.126786,-4.7e-4 -0.189492,0.008 -0.175921,0.0224 -0.371382,0.1295 -0.546105,0.13246 -1.348912,0.0228 -2.698147,0.0184 -4.047223,0.0276 -0.311078,-0.0356 -0.08568,-0.32423 0.04564,-0.46586 1.101725,-0.99658 0.09756,-0.13 4.143394,-0.16068 0.09713,-7.4e-4 0.15544,0.2464 0.146859,0.24702 -1.29858,0.094 -2.601814,0.10561 -3.902723,0.15841 0.224764,-0.20631 0.399119,-0.47403 0.712031,-0.55635 1.340789,-0.47221 2.842453,-0.0703 4.263967,-0.0702 0.107206,1e-5 0.0195,0.11019 -0.03865,0.0899 -1.934007,0.32339 -3.83652,0.35142 -5.614723,-0.36256 0,0 3.897638,0 3.897638,0 z"
             id="path878"
             style="opacity:1;fill:none;fill-opacity:1;stroke:#000000;stroke-width:3.96875;stroke-linecap:round;stroke-linejoin:round;stroke-miterlimit:4;stroke-dasharray:none;stroke-opacity:1" />
        </g>
      </g>
    </g>
    <path
       style="opacity:1;fill:#87aade;fill-opacity:0.89215686;stroke:#ffffff;stroke-width:0;stroke-linecap:round;stroke-linejoin:round;stroke-miterlimit:4;stroke-dasharray:none;stroke-opacity:1"
       d="m 7.4658927,284.50914 c -1.4404096,-2.49575 -2.6125607,-4.54409 -2.6047806,-4.55187 0.014483,-0.0145 1.0387571,-0.0789 1.0487098,-0.0659 0.062168,0.0809 5.2337011,9.07856 5.2237411,9.08852 -0.01376,0.0138 -0.720723,0.0631 -0.941736,0.0657 l -0.107008,10e-4 -2.6189263,-4.53772 z"
       id="path2376"
       inkscape:connector-curvature="0" />
    <path
       style="opacity:1;fill:#87aade;fill-opacity:0.89215686;stroke:#ffffff;stroke-width:0;stroke-linecap:round;stroke-linejoin:round;stroke-miterlimit:4;stroke-dasharray:none;stroke-opacity:1"
       d="m 8.0449377,290.69091 c -0.134423,-0.21886 -5.2045686,-9.01438 -5.2045686,-9.02872 0,-0.0331 0.5625146,-0.87707 0.5804977,-0.87097 0.014405,0.005 5.2334733,9.02503 5.2476025,9.06946 0.00211,0.007 -0.1276151,0.21196 -0.288285,0.45625 l -0.292128,0.44418 z"
       id="path2378"
       inkscape:connector-curvature="0" />
    <path
       style="opacity:1;fill:#5eaade;fill-opacity:0.6127451;stroke:#ffffff;stroke-width:0;stroke-linecap:round;stroke-linejoin:round;stroke-miterlimit:4;stroke-dasharray:none;stroke-opacity:1"
       d="m 8.0570271,288.12206 c -0.4774566,-0.8269 -1.6552271,-2.86621 -2.6172678,-4.53179 -0.962041,-1.66558 -1.7533108,-3.04335 -1.7583776,-3.06171 -0.00672,-0.0244 0.098157,-0.0952 0.3879718,-0.26217 0.2184512,-0.12583 0.4044871,-0.22857 0.4134129,-0.22831 0.01503,4.4e-4 5.230211,9.02154 5.2593796,9.09755 0.010174,0.0265 -0.075558,0.0852 -0.3829787,0.26203 -0.2178478,0.12533 -0.4046258,0.22787 -0.4150622,0.22787 -0.010436,0 -0.4096215,-0.67656 -0.887078,-1.50347 z"
       id="path2380"
       inkscape:connector-curvature="0" />
    <g
       id="g2385"
       transform="matrix(0.09244348,0,0,0.09244348,1.5255329,267.45602)">
      <path
         transform="matrix(0.26458333,0,0,0.26458333,0,111.79165)"
         inkscape:connector-curvature="0"
         id="path2382"
         d="m 317.49972,557.7951 c -21.13676,-9.81957 -38.40807,-18.11531 -38.38067,-18.43499 0.0274,-0.31967 5.89475,-9.51279 13.03857,-20.42915 12.59039,-19.23918 13.15244,-19.94198 18.3252,-22.91433 2.93503,-1.68652 12.6463,-7.27856 21.58059,-12.42676 l 16.24417,-9.36035 23.80772,-1.42746 c 13.09424,-0.7851 23.97389,-1.26128 24.17698,-1.05819 0.2031,0.2031 -1.57424,18.86412 -3.94966,41.46895 -2.37541,22.60482 -4.32274,41.78074 -4.3274,42.61315 -0.005,0.89622 -1.52511,2.28426 -3.72723,3.40344 -2.04531,1.03949 -7.45937,4.12402 -12.03125,6.85453 -4.57187,2.7305 -10.11566,5.99964 -12.31952,7.26474 l -4.00703,2.30019 z"
         style="opacity:1;fill:#e9c687;fill-opacity:0.40196078;stroke:#ffffff;stroke-width:0;stroke-linecap:round;stroke-linejoin:round;stroke-miterlimit:4;stroke-dasharray:none;stroke-opacity:1" />
    </g>
    <path
       style="opacity:1;fill:#fff6d5;fill-opacity:1;stroke:#000000;stroke-width:0.03307291;stroke-linecap:round;stroke-linejoin:round;stroke-miterlimit:4;stroke-dasharray:none;stroke-opacity:1"
       d="m 9.3467109,291.45851 c -0.4564041,-0.21319 -0.8648477,-0.41088 -0.9076523,-0.4393 l -0.077827,-0.0517 0.290005,-0.44851 c 0.1595028,-0.24667 0.32238,-0.47752 0.3619492,-0.513 0.039569,-0.0355 0.287078,-0.18822 0.5500195,-0.33944 l 0.4780757,-0.27493 0.414893,-0.0263 c 0.228191,-0.0144 0.494252,-0.0269 0.591245,-0.0278 l 0.176351,-0.002 -0.01683,0.14056 c -0.0093,0.0773 -0.05791,0.54597 -0.108129,1.04147 l -0.0913,0.9009 -0.378467,0.21531 c -0.208157,0.11841 -0.395126,0.21452 -0.415488,0.21357 -0.02036,-9.5e-4 -0.4104423,-0.17615 -0.8668462,-0.38934 z"
       id="path10226"
       inkscape:connector-curvature="0" />
    <path
       style="opacity:1;fill:#ffffff;fill-opacity:1;stroke:#000000;stroke-width:0.03307291;stroke-linecap:round;stroke-linejoin:round;stroke-miterlimit:4;stroke-dasharray:none;stroke-opacity:1"
       d="m 12.475104,296.23224 c -0.355107,-0.0709 -0.736367,-0.23728 -1.042532,-0.45506 -0.423051,-0.30092 -0.5645,-0.43721 -0.663279,-0.63911 -0.07564,-0.15461 -0.09139,-0.23733 -0.105233,-0.5528 -0.02043,-0.46552 0.02002,-0.66554 0.213182,-1.05428 0.13067,-0.26298 0.14793,-0.32186 0.133048,-0.45389 -0.01905,-0.16904 0.0387,-0.31932 0.133266,-0.34678 0.151358,-0.044 0.435513,-0.0579 0.498066,-0.0244 0.102046,0.0546 0.148988,0.24308 0.131709,0.5288 -0.01325,0.21915 -0.03591,0.29291 -0.173924,0.56617 -0.143987,0.28509 -0.1601,0.34023 -0.173941,0.59531 -0.0086,0.15774 -10e-6,0.32012 0.01948,0.36997 0.04662,0.11926 0.397733,0.39689 0.682893,0.53998 0.324854,0.16301 0.603686,0.21328 1.186787,0.21396 0.559797,6.6e-4 0.706302,-0.0307 0.871559,-0.18657 0.108129,-0.10198 0.113358,-0.11704 0.09814,-0.28275 -0.0088,-0.0963 -0.04002,-0.25641 -0.06929,-0.35587 -0.06964,-0.23665 -0.07042,-0.73253 -0.0015,-0.93486 0.166825,-0.48961 1.014788,-0.88057 1.917422,-0.88406 0.343748,-10e-4 0.586911,0.0536 0.888878,0.20085 0.398526,0.19432 0.612491,0.47874 0.613894,0.81605 9.26e-4,0.22012 -0.0422,0.31934 -0.290576,0.66867 -0.325577,0.4579 -0.362863,0.49609 -0.484371,0.49609 -0.0875,0 -0.139615,-0.0337 -0.277863,-0.17992 -0.09359,-0.099 -0.170161,-0.20521 -0.170161,-0.23612 0,-0.0678 0.156122,-0.3293 0.341255,-0.57157 0.131818,-0.1725 0.133742,-0.17867 0.07076,-0.22696 -0.132903,-0.10191 -0.364784,-0.18363 -0.567124,-0.19987 -0.376102,-0.0302 -0.942715,0.0987 -1.209104,0.27494 -0.122258,0.0809 -0.124061,0.0852 -0.124061,0.29744 0,0.13055 0.02604,0.28942 0.06615,0.40352 0.09168,0.26085 0.08956,0.63806 -0.005,0.8908 -0.119133,0.31842 -0.487802,0.61567 -0.899547,0.7253 -0.22199,0.0591 -1.307921,0.0571 -1.608991,-0.003 z"
       id="path10248"
       inkscape:connector-curvature="0" />
  </g>
</svg>
