<?xml version="1.0" encoding="UTF-8" standalone="no"?>
<!-- Created with Inkscape (http://www.inkscape.org/) -->

<svg
   xmlns:osb="http://www.openswatchbook.org/uri/2009/osb"
   xmlns:dc="http://purl.org/dc/elements/1.1/"
   xmlns:cc="http://creativecommons.org/ns#"
   xmlns:rdf="http://www.w3.org/1999/02/22-rdf-syntax-ns#"
   xmlns:svg="http://www.w3.org/2000/svg"
   xmlns="http://www.w3.org/2000/svg"
   xmlns:xlink="http://www.w3.org/1999/xlink"
   xmlns:sodipodi="http://sodipodi.sourceforge.net/DTD/sodipodi-0.dtd"
   xmlns:inkscape="http://www.inkscape.org/namespaces/inkscape"
   width="30"
   height="40"
   viewBox="0 0 7.937499 10.583333"
   version="1.1"
   id="svg16"
   inkscape:version="0.92.2 (5c3e80d, 2017-08-06)"
   sodipodi:docname="trashcan_smaller_grey_final_3.svg">
  <title
     id="title6116">pienempi_roskis_harmaa</title>
  <defs
     id="defs10">
    <linearGradient
       inkscape:collect="always"
       id="linearGradient6126">
      <stop
         style="stop-color:#918a6f;stop-opacity:1;"
         offset="0"
         id="stop6122" />
      <stop
         style="stop-color:#918a6f;stop-opacity:0;"
         offset="1"
         id="stop6124" />
    </linearGradient>
    <linearGradient
       id="linearGradient6112"
       osb:paint="solid">
      <stop
         style="stop-color:#000000;stop-opacity:1;"
         offset="0"
         id="stop6110" />
    </linearGradient>
    <linearGradient
       id="linearGradient4646"
       osb:paint="solid">
      <stop
         style="stop-color:#000000;stop-opacity:1;"
         offset="0"
         id="stop4644" />
    </linearGradient>
    <inkscape:path-effect
       effect="bspline"
       id="path-effect4632"
       is_visible="true"
       weight="33.333333"
       steps="2"
       helper_size="0"
       apply_no_weight="true"
       apply_with_weight="true"
       only_selected="false" />
    <inkscape:path-effect
       effect="bspline"
       id="path-effect3753"
       is_visible="true"
       weight="33.333333"
       steps="2"
       helper_size="0"
       apply_no_weight="true"
       apply_with_weight="true"
       only_selected="false" />
    <inkscape:path-effect
       effect="bspline"
       id="path-effect3753-2"
       is_visible="true"
       weight="33.333333"
       steps="2"
       helper_size="0"
       apply_no_weight="true"
       apply_with_weight="true"
       only_selected="false" />
    <inkscape:path-effect
       effect="bspline"
       id="path-effect3753-21"
       is_visible="true"
       weight="33.333333"
       steps="2"
       helper_size="0"
       apply_no_weight="true"
       apply_with_weight="true"
       only_selected="false" />
    <inkscape:path-effect
       effect="bspline"
       id="path-effect3753-21-5"
       is_visible="true"
       weight="33.333333"
       steps="2"
       helper_size="0"
       apply_no_weight="true"
       apply_with_weight="true"
       only_selected="false" />
    <inkscape:path-effect
       effect="bspline"
       id="path-effect3753-21-2"
       is_visible="true"
       weight="33.333333"
       steps="2"
       helper_size="0"
       apply_no_weight="true"
       apply_with_weight="true"
       only_selected="false" />
    <radialGradient
       inkscape:collect="always"
       xlink:href="#linearGradient6126"
       id="radialGradient6130"
       cx="25.984451"
       cy="23.993998"
       fx="25.984451"
       fy="23.993998"
       r="296.84128"
       gradientTransform="matrix(1,0,0,1.0125375,0,-0.30082453)"
       gradientUnits="userSpaceOnUse" />
  </defs>
  <sodipodi:namedview
     id="base"
     pagecolor="#ffffff"
     bordercolor="#666666"
     borderopacity="1.0"
     inkscape:pageopacity="0.0"
     inkscape:pageshadow="2"
     inkscape:zoom="15.04"
     inkscape:cx="0.625"
     inkscape:cy="18.897706"
     inkscape:document-units="px"
     inkscape:current-layer="layer1"
     showgrid="true"
     units="px"
     fit-margin-top="0"
     fit-margin-left="0"
     fit-margin-right="0"
     fit-margin-bottom="0"
     inkscape:window-width="1920"
     inkscape:window-height="1005"
     inkscape:window-x="-9"
     inkscape:window-y="-9"
     inkscape:window-maximized="1"
     inkscape:object-nodes="false"
     inkscape:snap-nodes="false">
    <inkscape:grid
       type="xygrid"
       id="grid18"
       spacingx="0.052916666"
       spacingy="0.052916666" />
  </sodipodi:namedview>
  <metadata
     id="metadata13">
    <rdf:RDF>
      <cc:Work
         rdf:about="">
        <dc:format>image/svg+xml</dc:format>
        <dc:type
           rdf:resource="http://purl.org/dc/dcmitype/StillImage" />
        <dc:title>pienempi_roskis_harmaa</dc:title>
      </cc:Work>
    </rdf:RDF>
  </metadata>
  <g
     inkscape:label="Taso 1"
     inkscape:groupmode="layer"
     id="layer1"
     transform="translate(0,-286.41665)">
    <path
       inkscape:connector-curvature="0"
       id="path8298"
       d="m 2.6297717,288.79921 v -1.41033 h 2.7449256 v 1.41033"
       style="fill:none;fill-opacity:1;stroke:#000000;stroke-width:0.56798887;stroke-linecap:butt;stroke-linejoin:miter;stroke-miterlimit:4;stroke-dasharray:none;stroke-opacity:1" />
    <path
       style="fill:none;fill-opacity:1;stroke:#000000;stroke-width:0.38079008;stroke-linecap:butt;stroke-linejoin:miter;stroke-miterlimit:4;stroke-dasharray:none;stroke-opacity:1"
       d="m 3.0167373,288.57885 v -0.8828 h 1.9709945 v 0.8828"
       id="path11440"
       inkscape:connector-curvature="0" />
    <path
       style="fill:none;fill-opacity:1;stroke:#b3b3b3;stroke-width:0.39070809;stroke-linecap:butt;stroke-linejoin:miter;stroke-miterlimit:4;stroke-dasharray:none;stroke-opacity:1"
       d="m 2.785349,288.26288 v -0.74997 h 2.4424794 v 0.74997"
       id="path4642"
       inkscape:connector-curvature="0" />
    <path
       style="opacity:0;fill:#c8b7b7;stroke:#000000;stroke-width:0.036875;stroke-linecap:square;stroke-miterlimit:4;stroke-dasharray:none;stroke-opacity:1"
       d="m 8.134019,-276.33572 c -3.626085,0.19132 -7.25250879,0.37745 -10.8707125,0.68917 -3.0865563,0.23167 -6.1657876,0.55807 -9.2431265,0.8873 -3.378724,0.39735 -6.754576,0.81635 -10.118008,1.32906 -3.022734,0.4328 -6.032586,0.95503 -9.040222,1.48086 -3.344914,0.62077 -6.685529,1.26294 -10.007551,1.99768 -2.987346,0.63239 -5.955848,1.3534 -8.921941,2.07767 -3.296332,0.84133 -6.586944,1.70375 -9.85285,2.65735 -2.938807,0.82928 -5.852957,1.74562 -8.764457,2.66516 -3.233231,1.05829 -6.459356,2.13724 -9.654781,3.30552 -2.877237,1.02251 -5.724119,2.13022 -8.568137,3.24095 -3.155888,1.27053 -6.303325,2.5612 -9.414207,3.93897 -2.803056,1.2112 -5.570146,2.50541 -8.334196,3.80244 -3.0646,1.47717 -6.11942,2.97389 -9.13199,4.55508 -2.71648,1.39454 -5.39153,2.86964 -8.0634,4.34723 -2.95987,1.67728 -5.90868,3.37342 -8.80966,5.15115 -2.6179,1.5718 -5.18922,3.22103 -7.75712,4.87269 -2.84197,1.87001 -5.67167,3.7581 -8.44826,5.72435 -2.5079,1.74205 -4.96401,3.5585 -7.41669,5.37696 -2.71161,2.05448 -5.40976,4.12617 -8.04972,6.27238 -2.38673,1.90465 -4.71688,3.88007 -7.04345,5.85729 -2.56931,2.22989 -5.12404,4.47609 -7.61571,6.79282 -2.25503,2.05888 -4.44899,4.18451 -6.6392,6.31178 -2.41564,2.39553 -4.81565,4.80635 -7.14809,7.28333 -2.11339,2.20402 -4.16155,4.47047 -6.2057,6.73843 -2.25123,2.55066 -4.48591,5.11551 -6.64894,7.74175 -1.96254,2.33933 -3.85559,4.73686 -5.74476,7.13545 -2.07707,2.69435 -4.13663,5.4018 -6.12046,8.16587 -1.80286,2.46451 -3.5328,4.98227 -5.25859,7.50098 -1.89361,2.82632 -3.76891,5.66453 -5.56501,8.55413 -1.6354,2.57869 -3.19435,5.20579 -4.7492,7.83347 -1.70192,2.94572 -3.38475,5.90209 -4.98507,8.90452 -1.46065,2.68152 -2.8417,5.40629 -4.21872,8.13135 -1.50268,3.05219 -2.98561,6.11375 -4.38313,9.21579 -1.27944,2.77256 -2.47667,5.58296 -3.66979,8.393407 -1.29677,3.145193 -2.57323,6.298412 -3.76184,9.48635 -1.09265,2.851375 -2.1007,5.735081 -3.10467,8.61855 -1.08515,3.224318 -2.14951,6.4553 -3.12395,9.715081 -0.901,2.917569 -1.71546,5.861775 -2.52585,8.805475 -0.8688,3.289244 -1.71639,6.58375 -2.4723,9.901031 -0.70537,2.970983 -1.32263,5.962795 -1.93588,8.953836 -0.6486,3.33964 -1.27567,6.683132 -1.80969,10.043279 -0.50658,3.011212 -0.92394,6.037353 -1.33734,9.06246 -0.42556,3.375319 -0.82939,6.753053 -1.13928,10.14123 -0.30569,3.0381877 -0.52116,6.0853683 -0.73288,9.1312421 -0.20061,3.39609562 -0.37938,6.7931594 -0.46371,10.1944075 -0.021,0.6307214 -0.0419,1.2614428 -0.0629,1.8921642 1.72266,-1.6849367 3.44532,-3.3698729 5.16797,-5.0548098 -0.056,1.6849369 -0.11198,3.3698731 -0.16797,5.0548098 1.72266,-1.6849367 3.44532,-3.3698729 5.16797,-5.0548098 0.0197,0.3080537 -0.0893,0.9171662 0.007,1.04482 8.23809,-8.4033988 16.45585,-16.827138 24.70667,-25.217801 5.83495,-5.707151 11.66991,-11.414302 17.50486,-17.121452 -1.7695,3.252115 -3.53899,6.504231 -5.30847,9.756347 35.25592,-36.003398 70.5042,-72.014437 105.7649,-108.013067 39.392948,-38.53417 78.793525,-77.06071 118.18170458,-115.59966 1.06975812,-1.09252 2.13951562,-2.18502 3.20927372,-3.27753 -1.7851756,0.14776 -3.56912372,0.30896 -5.3514406,0.48803 7.4837244,-7.31986 14.9674483,-14.63973 22.4511723,-21.95959 -0.319678,-0.0189 -0.925331,0.0879 -1.067596,-0.009 0.228169,-0.25895 -0.643208,-0.0348 -0.880618,-0.0892 -1.387705,0.0446 -2.77541,0.0892 -4.163114,0.13388 0.386801,-0.32866 -0.546037,-0.0775 -0.774418,-0.13588 -1.838418,0.0591 -3.6768369,0.11825 -5.515255,0.17738 z m 13.331665,-0.10718 c 0.514364,0.50362 1.028727,1.00725 1.543091,1.51087 0.525838,-0.53707 1.051676,-1.07414 1.577515,-1.61121 -1.040202,0.0335 -2.080404,0.0669 -3.120606,0.10034 z m 7.708984,1.3606 c 0.463745,-0.45362 0.92749,-0.90723 1.391235,-1.36084 -0.937906,-0.0312 -1.875813,-0.0623 -2.81372,-0.0935 0.474162,0.48478 0.948324,0.96957 1.422485,1.45435 z m 3.745484,-1.28272 c -0.474406,-0.0157 -0.948812,-0.0315 -1.423218,-0.0472 7.471761,7.31584 14.943522,14.63168 22.415283,21.94751 -1.671577,-0.15834 -3.342873,-0.32241 -5.016724,-0.45532 3.610004,3.67233 7.18308,7.38157 10.816838,11.03015 39.214314,38.39985 78.436269,76.79205 117.645819,115.19667 31.66108,32.369867 63.32218,64.739735 94.98326,97.109607 -1.7436,-3.078573 -3.48721,-6.157146 -5.23083,-9.235718 9.53347,9.343333 19.08475,18.668864 28.60707,28.023335 5.6606,5.7873065 11.3212,11.5746127 16.9818,17.361919 0.0191,-0.3106919 -0.16449,-1.0826663 0.24305,-0.50962 1.63155,1.5974856 3.2631,3.1949711 4.89465,4.7924566 -0.0542,-1.6849365 -0.1084,-3.3698729 -0.1626,-5.0548098 1.72086,1.6849369 3.44173,3.3698733 5.1626,5.0548098 -0.11098,-3.6294079 -0.21677,-7.2590398 -0.44834,-10.883231 -0.16333,-3.0909331 -0.42136,-6.1766513 -0.68241,-9.2605296 -0.32251,-3.386725 -0.66672,-6.771062 -1.1048,-10.145062 -0.36573,-3.031533 -0.82138,-6.052132 -1.28045,-9.07063 -0.54646,-3.357883 -1.11445,-6.711935 -1.7756,-10.049415 -0.56618,-3.000584 -1.22118,-5.984329 -1.87962,-8.965714 -0.76818,-3.314181 -1.55757,-6.623113 -2.43867,-9.909369 -0.76402,-2.956381 -1.61563,-5.89005 -2.47045,-8.82115 -0.98639,-3.255919 -1.99362,-6.505187 -3.09095,-9.725706 -0.95857,-2.899163 -2.00305,-5.769831 -3.05053,-8.637744 -1.2003,-3.183244 -2.42095,-6.358475 -3.72957,-9.49905 -1.14887,-2.829181 -2.38154,-5.624239 -3.61705,-8.416339 -1.40892,-3.09659 -2.83761,-6.18382 -4.35178,-9.23062 -1.33411,-2.74669 -2.74956,-5.45378 -4.16767,-8.15772 -1.61137,-2.9962 -3.24181,-5.98176 -4.95477,-8.92138 -1.51339,-2.65213 -3.10551,-5.25923 -4.69991,-7.8631 -1.80662,-2.88272 -3.63159,-5.75355 -5.53592,-8.573 -1.68611,-2.54582 -3.44763,-5.04159 -5.21137,-7.53388 -1.99403,-2.7564 -4.00556,-5.49974 -6.09276,-8.18664 -1.85132,-2.42831 -3.77463,-4.80165 -5.69988,-7.17139 -2.17254,-2.61797 -4.36168,-5.22176 -6.62257,-7.76421 -2.00837,-2.3001 -4.085,-4.54048 -6.16325,-6.77723 -2.3415,-2.46805 -4.69862,-4.92084 -7.1233,-7.30761 -2.15662,-2.16175 -4.37738,-4.25939 -6.5995,-6.35331 -2.50007,-2.30725 -5.01473,-4.5982 -7.59257,-6.81866 -2.29541,-2.01374 -4.65031,-3.95956 -7.00651,-5.90134 -2.64775,-2.1362 -5.30897,-4.2552 -8.02842,-6.2998 -2.42392,-1.85706 -4.90293,-3.64208 -7.38278,-5.42324 -2.78363,-1.95582 -5.57957,-3.89355 -8.42877,-5.75306 -2.5419,-1.69203 -5.13383,-3.30875 -7.72646,-4.9214 -2.90732,-1.76674 -5.82571,-3.51464 -8.79201,-5.18103 -2.64852,-1.51963 -5.34202,-2.96072 -8.03593,-4.39771 -3.01818,-1.56984 -6.04615,-3.12016 -9.11648,-4.58603 -2.74357,-1.34053 -5.52682,-2.59966 -8.3102,-3.85473 -3.11568,-1.36608 -6.23984,-2.71203 -9.40068,-3.97086 -2.82652,-1.15547 -5.68719,-2.22718 -8.54774,-3.29475 -3.19949,-1.15629 -6.4061,-2.29192 -9.64353,-3.33818 -2.89694,-0.96531 -5.82239,-1.84481 -8.74744,-2.72019 -3.26916,-0.94142 -6.54408,-1.86175 -9.8438,-2.69086 -2.95462,-0.77094 -5.932002,-1.45429 -8.908708,-2.1336 -3.324494,-0.72238 -6.653313,-1.42334 -10.000838,-2.03165 -2.99925,-0.57316 -6.015425,-1.05731 -9.030639,-1.53756 -3.365078,-0.50013 -6.733048,-0.97862 -10.113528,-1.36348 -3.030677,-0.37287 -6.072329,-0.65587 -9.11277,-0.93494 -3.390855,-0.27564 -6.783159,-0.52951 -10.181728,-0.68918 -2.777957,-0.1699 -5.561542,-0.21277 -8.342316,-0.3191 0.399356,0.33549 -0.536401,0.0832 -0.769015,0.14052 -1.410328,-0.0468 -2.820656,-0.0937 -4.230985,-0.14052 0.05599,0.0572 0.111979,0.11442 0.167969,0.17163 z M -270.59816,43.597387 c 0.19132,3.626085 0.37745,7.252509 0.68917,10.870712 0.23167,3.086557 0.55807,6.165788 0.8873,9.243127 0.39735,3.378724 0.81635,6.754576 1.32906,10.118008 0.4328,3.022733 0.95503,6.032589 1.48086,9.04022 0.62077,3.344913 1.26294,6.685532 1.99768,10.00755 0.63239,2.98735 1.3534,5.95585 2.07767,8.921946 0.84133,3.29633 1.70375,6.58694 2.65735,9.85285 0.82928,2.9388 1.74562,5.85295 2.66516,8.76445 1.05829,3.23324 2.13724,6.45936 3.30552,9.65479 1.02251,2.87723 2.13022,5.72411 3.24095,8.56813 1.27053,3.15589 2.5612,6.30333 3.93897,9.41421 1.2112,2.80306 2.50541,5.57015 3.80244,8.3342 1.47717,3.06459 2.97389,6.11942 4.55508,9.13198 1.39454,2.71649 2.86964,5.39153 4.34723,8.06341 1.67728,2.95987 3.37342,5.90868 5.15115,8.80966 1.5718,2.61789 3.22103,5.18921 4.87269,7.75711 1.87001,2.84198 3.7581,5.67167 5.72435,8.44826 1.74205,2.5079 3.5585,4.96402 5.37696,7.41669 2.05448,2.71161 4.12617,5.40976 6.27238,8.04972 1.90465,2.38673 3.88007,4.71688 5.85728,7.04346 2.2299,2.56931 4.4761,5.12403 6.79283,7.61571 2.05887,2.25502 4.18451,4.44899 6.31178,6.63919 2.39553,2.41564 4.80634,4.81566 7.28333,7.1481 2.20401,2.11338 4.47047,4.16154 6.73843,6.20569 2.55066,2.25124 5.11551,4.48591 7.74175,6.64894 2.33933,1.96255 4.73686,3.85559 7.13545,5.74477 2.69435,2.07707 5.4018,4.13663 8.16587,6.12045 2.46451,1.80287 4.98226,3.53281 7.50098,5.25859 2.82632,1.89361 5.66453,3.76891 8.55413,5.56502 2.57869,1.6354 5.20579,3.19434 7.83347,4.7492 2.94572,1.70191 5.90208,3.38474 8.90452,4.98507 2.68151,1.46064 5.40629,2.8417 8.13135,4.21872 3.05219,1.50268 6.11375,2.98561 9.21579,4.38313 2.772556,1.27944 5.582956,2.47667 8.393406,3.66979 2.643544,1.0888 5.295257,2.15695 7.954644,3.20567 3.014688,1.24275 6.068644,2.389 9.124019,3.52688 3.199144,1.1573 6.406794,2.28991 9.643987,3.33687 2.877607,0.95738 5.782982,1.83123 8.688125,2.70046 3.269169,0.94142 6.544082,1.86175 9.843807,2.69087 2.954616,0.77093 5.932,1.45429 8.908705,2.1336 3.324493,0.72238 6.653311,1.42334 10.000838,2.03165 2.99925,0.57316 6.015425,1.05731 9.03064,1.53755 3.365077,0.50014 6.733047,0.97863 10.1135279,1.36348 3.0306763,0.37287 6.0723282,0.65587 9.11277006,0.93494 3.39085504,0.27564 6.78315874,0.52951 10.18172804,0.68919 2.777956,0.16989 5.561542,0.21276 8.342316,0.31909 -0.735596,-0.75207 -1.471192,-1.50415 -2.206788,-2.25622 1.15285,0.0702 2.308046,0.0874 3.462037,0.13183 -26.3183893,-25.77426 -52.646969,-51.53835 -78.958987,-77.31898 -22.317856,-22.81235 -44.625525,-45.63489 -66.949755,-68.44088 -23.97946,-23.48412 -47.96912,-46.95804 -71.94221,-70.44852 -21.11719,-21.589922 -42.23438,-43.179846 -63.35157,-64.769767 0.0352,0.950826 0.0491,1.902573 0.10694,2.852418 -1.74821,-1.711752 -3.49642,-3.423504 -5.24463,-5.135255 0.0321,0.996623 0.0641,1.993246 0.0962,2.989868 -1.69873,-1.663289 -3.39746,-3.326578 -5.09619,-4.989868 0.0692,2.150757 0.13835,4.301514 0.20752,6.452271 z m 588.32947,-1.157715 c 0.0331,-0.99585 0.0662,-1.991699 0.0992,-2.987549 -1.75077,1.712443 -3.50154,3.424886 -5.25232,5.137329 0.0637,-1.056291 0.0801,-2.114678 0.12061,-3.171996 -23.62099,24.119251 -47.23179,48.248692 -70.85914,72.361574 -23.9632,23.44347 -47.93657,46.87674 -71.8934,70.32657 -22.30162,22.77175 -44.59305,45.55369 -66.90104,68.31906 -23.849603,23.32739 -47.699209,46.65478 -71.548814,69.98218 1.050024,-0.0389 2.101076,-0.0541 3.150024,-0.11792 -0.733765,0.74938 -1.467529,1.49877 -2.201294,2.24817 3.629408,-0.11098 7.25904,-0.21677 10.883231,-0.44834 3.090933,-0.16333 6.176651,-0.42136 9.26053,-0.68241 3.386725,-0.32251 6.771061,-0.66672 10.145062,-1.1048 3.031533,-0.36573 6.052131,-0.82138 9.070629,-1.28045 3.357884,-0.54646 6.711936,-1.11445 10.049417,-1.7756 3.000582,-0.56618 5.984325,-1.22118 8.965713,-1.87962 3.314181,-0.76818 6.623112,-1.55757 9.909372,-2.43867 2.95638,-0.76402 5.89005,-1.61563 8.82115,-2.47045 3.25592,-0.98639 6.50518,-1.99362 9.7257,-3.09095 2.89917,-0.95857 5.76983,-2.00305 8.63775,-3.05053 3.0324,-1.14637 6.06097,-2.30249 9.05511,-3.54598 2.70261,-1.04724 5.38532,-2.14795 8.05789,-3.26942 3.10848,-1.33042 6.20561,-2.68631 9.2668,-4.12277 2.75602,-1.2655 5.4752,-2.6112 8.19112,-3.95996 3.03118,-1.54464 6.05216,-3.1086 9.02898,-4.75615 2.68495,-1.45439 5.32676,-2.98823 7.96527,-4.52464 2.92192,-1.74243 5.83238,-3.50344 8.69331,-5.3448 2.58253,-1.6293 5.11664,-3.33516 7.64737,-5.04326 2.79992,-1.93248 5.58715,-3.88277 8.31953,-5.91009 2.46864,-1.79717 4.88402,-3.66735 7.29579,-5.53965 2.66548,-2.11406 5.31713,-4.24505 7.90896,-6.44921 2.34392,-1.95704 4.62987,-3.98337 6.91205,-6.0116 2.51925,-2.28631 5.0236,-4.58857 7.46344,-6.95984 2.20891,-2.10828 4.35532,-4.28193 6.49788,-6.45717 2.36197,-2.44848 4.708,-4.91188 6.98515,-7.43981 2.06418,-2.25015 4.06138,-4.56164 6.05488,-6.87425 2.19432,-2.59975 4.37174,-5.21336 6.47598,-7.88689 1.91022,-2.38226 3.74982,-4.82104 5.5854,-7.26089 2.01687,-2.73974 4.01597,-5.49215 5.93826,-8.29939 1.74798,-2.50373 3.42149,-5.05933 5.09113,-7.61561 1.83065,-2.86752 3.64273,-5.74652 5.37443,-8.67519 1.57791,-2.61422 3.07824,-5.27518 4.57454,-7.93661 1.63629,-2.98269 3.25328,-5.97559 4.78672,-9.01274 1.4009,-2.71322 2.72137,-5.46787 4.03773,-8.22276 1.43472,-3.08473 2.84951,-6.17837 4.17805,-9.3106 1.21775,-2.80017 2.35242,-5.63639 3.48304,-8.47254 1.22688,-3.17315 2.43326,-6.35388 3.55097,-9.56741 1.02923,-2.87482 1.97314,-5.7801 2.91304,-8.68504 1.01358,-3.24755 2.00621,-6.50129 2.9082,-9.78186 0.83619,-2.9368 1.58523,-5.89834 2.33026,-8.85927 0.79579,-3.307647 1.57026,-6.620091 2.25254,-9.953291 0.63942,-2.985875 1.1903,-5.990625 1.73717,-8.994518 0.57446,-3.353175 1.12734,-6.709716 1.58691,-10.080836 0.43983,-3.021699 0.79015,-6.05635 1.13648,-9.089883 0.35072,-3.383898 0.67965,-6.769731 0.91439,-10.163927 0.23827,-3.044208 0.38645,-6.095389 0.53068,-9.145195 0.0625,-1.880033 0.12492,-3.760064 0.18737,-5.640097 -1.69975,1.662516 -3.39949,3.325033 -5.09924,4.987549 z M 21.465562,322.43699 c 0.710042,0.0236 1.420085,0.0472 2.130127,0.0708 -0.366862,-0.35925 -0.733724,-0.71851 -1.100586,-1.07776 -0.34318,0.33565 -0.686361,0.67131 -1.029541,1.00696 z m 6.97522,0.0681 c 0.708333,-0.0228 1.416666,-0.0456 2.125,-0.0684 -0.342326,-0.3352 -0.684652,-0.67041 -1.026978,-1.00561 -0.366007,0.35799 -0.732015,0.71598 -1.098022,1.07397 z"
       id="path6118"
       inkscape:connector-curvature="0"
       transform="matrix(0.26458333,0,0,0.26458333,0,283.77081)" />
    <path
       style="opacity:0;fill:url(#radialGradient6130);fill-opacity:1;stroke:#000000;stroke-width:0.036875;stroke-linecap:square;stroke-miterlimit:4;stroke-dasharray:none;stroke-opacity:1"
       d="m 8.102769,-276.33572 c -3.626085,0.19132 -7.25250879,0.37745 -10.8707125,0.68917 -3.0865563,0.23167 -6.1657876,0.55807 -9.2431265,0.8873 -3.378724,0.39735 -6.754576,0.81635 -10.118008,1.32906 -3.022734,0.4328 -6.032586,0.95503 -9.040222,1.48086 -3.344914,0.62077 -6.685529,1.26294 -10.007551,1.99768 -2.987346,0.63239 -5.955848,1.3534 -8.921941,2.07767 -3.296332,0.84133 -6.586944,1.70375 -9.85285,2.65735 -2.938807,0.82928 -5.852957,1.74562 -8.764457,2.66516 -3.233231,1.05829 -6.459356,2.13724 -9.654781,3.30552 -2.877237,1.02251 -5.724119,2.13022 -8.568137,3.24095 -3.155888,1.27053 -6.303325,2.5612 -9.414207,3.93897 -2.803056,1.2112 -5.570146,2.50541 -8.334196,3.80244 -3.0646,1.47717 -6.11942,2.97389 -9.13199,4.55508 -2.71648,1.39454 -5.39153,2.86964 -8.0634,4.34723 -2.95987,1.67728 -5.90868,3.37342 -8.80966,5.15115 -2.6179,1.5718 -5.18922,3.22103 -7.75712,4.87269 -2.84197,1.87001 -5.67167,3.7581 -8.44826,5.72435 -2.5079,1.74205 -4.96401,3.5585 -7.41669,5.37696 -2.71161,2.05448 -5.40976,4.12617 -8.04972,6.27238 -2.38673,1.90465 -4.71688,3.88007 -7.04345,5.85729 -2.56931,2.22989 -5.12404,4.47609 -7.61571,6.79282 -2.25503,2.05888 -4.44899,4.18451 -6.6392,6.31178 -2.41564,2.39553 -4.81565,4.80635 -7.14809,7.28333 -2.11339,2.20402 -4.16155,4.47047 -6.2057,6.73843 -2.25123,2.55066 -4.48591,5.11551 -6.64894,7.74175 -1.96254,2.33933 -3.85559,4.73686 -5.74476,7.13545 -2.07707,2.69435 -4.13663,5.4018 -6.12046,8.16587 -1.80286,2.46451 -3.5328,4.98227 -5.25859,7.50098 -1.89361,2.82632 -3.76891,5.66453 -5.56501,8.55413 -1.6354,2.57869 -3.19435,5.20579 -4.7492,7.83347 -1.70192,2.94572 -3.38475,5.90209 -4.98507,8.90452 -1.46065,2.68152 -2.8417,5.40629 -4.21872,8.13135 -1.50268,3.05219 -2.98561,6.11375 -4.38313,9.21579 -1.27944,2.77256 -2.47667,5.58296 -3.66979,8.393407 -1.29677,3.145193 -2.57323,6.298412 -3.76184,9.48635 -1.09265,2.851375 -2.1007,5.735081 -3.10467,8.61855 -1.08515,3.224318 -2.14951,6.4553 -3.12395,9.715081 -0.901,2.917569 -1.71546,5.861775 -2.52585,8.805475 -0.8688,3.289244 -1.71639,6.58375 -2.4723,9.901031 -0.70537,2.970983 -1.32263,5.962795 -1.93588,8.953836 -0.6486,3.33964 -1.27567,6.683132 -1.80969,10.043279 -0.50658,3.011212 -0.92394,6.037353 -1.33734,9.06246 -0.42556,3.375319 -0.82939,6.753053 -1.13928,10.14123 -0.30569,3.0381877 -0.52116,6.0853683 -0.73288,9.1312421 -0.20061,3.39609562 -0.37938,6.7931594 -0.46371,10.1944075 -0.021,0.6307214 -0.0419,1.2614428 -0.0629,1.8921642 1.72266,-1.6849367 3.44532,-3.3698729 5.16797,-5.0548098 -0.056,1.6849369 -0.11198,3.3698731 -0.16797,5.0548098 1.72266,-1.6849367 3.44532,-3.3698729 5.16797,-5.0548098 0.0197,0.3080537 -0.0893,0.9171662 0.007,1.04482 8.23809,-8.4034 16.45585,-16.827137 24.70666,-25.217803 6.03743,-5.905229 12.07486,-11.810459 18.11228,-17.715689 -1.78238,3.256551 -3.56477,6.513103 -5.34716,9.769654 35.06635,-35.809753 70.12505,-71.627155 105.19618,-107.432135 39.392941,-38.53417 78.793526,-77.06071 118.18170396,-115.59966 1.06723504,-1.08995 2.13447064,-2.1799 3.20170624,-3.26984 -1.7848794,0.13939 -3.56693124,0.31176 -5.348755,0.48511 7.4853513,-7.32145 14.9707028,-14.64291 22.4560548,-21.96436 -0.319678,-0.0189 -0.925331,0.0879 -1.067596,-0.009 0.228169,-0.25895 -0.643208,-0.0348 -0.880618,-0.0892 -1.387705,0.0446 -2.77541,0.0892 -4.163114,0.13388 0.386801,-0.32866 -0.546037,-0.0775 -0.774418,-0.13588 -1.838418,0.0591 -3.6768369,0.11825 -5.515255,0.17738 z m 13.331665,-0.10718 c 0.514364,0.50362 1.028727,1.00725 1.543091,1.51087 0.525838,-0.53707 1.051676,-1.07414 1.577515,-1.61121 -1.040202,0.0335 -2.080404,0.0669 -3.120606,0.10034 z m 7.708984,1.3606 c 0.463745,-0.45362 0.92749,-0.90723 1.391235,-1.36084 -0.937906,-0.0312 -1.875813,-0.0623 -2.81372,-0.0935 0.474162,0.48478 0.948324,0.96957 1.422485,1.45435 z m 3.745484,-1.28272 c -0.474406,-0.0157 -0.948812,-0.0315 -1.423218,-0.0472 7.469849,7.31397 14.939698,14.62793 22.409546,21.94189 -1.671347,-0.16322 -3.343,-0.32304 -5.01709,-0.4558 3.612022,3.67438 7.187177,7.3856 10.822941,11.03625 39.214314,38.39985 78.436269,76.79205 117.645819,115.19667 32.13366,32.85306 64.26733,65.706129 96.40099,98.559192 -1.71078,-3.066895 -3.42155,-6.13379 -5.13233,-9.200684 9.02806,8.848459 18.07392,17.679119 27.09084,26.538716 5.6606,5.7873065 11.3212,11.5746127 16.9818,17.361919 0.0191,-0.3106919 -0.16449,-1.0826663 0.24305,-0.50962 1.63155,1.5974856 3.2631,3.1949711 4.89465,4.7924566 -0.0542,-1.6849365 -0.1084,-3.3698729 -0.1626,-5.0548098 1.72086,1.6849369 3.44173,3.3698733 5.1626,5.0548098 -0.11098,-3.6294079 -0.21677,-7.2590398 -0.44834,-10.883231 -0.16333,-3.0909331 -0.42136,-6.1766513 -0.68241,-9.2605296 -0.32251,-3.386725 -0.66672,-6.771062 -1.1048,-10.145062 -0.36573,-3.031533 -0.82138,-6.052132 -1.28045,-9.07063 -0.54646,-3.357883 -1.11445,-6.711935 -1.7756,-10.049415 -0.56618,-3.000584 -1.22118,-5.984329 -1.87962,-8.965714 -0.76818,-3.314181 -1.55757,-6.623113 -2.43867,-9.909369 -0.76402,-2.956381 -1.61563,-5.89005 -2.47045,-8.82115 -0.98639,-3.255919 -1.99362,-6.505187 -3.09095,-9.725706 -0.95857,-2.899163 -2.00305,-5.769831 -3.05053,-8.637744 -1.2003,-3.183244 -2.42095,-6.358475 -3.72957,-9.49905 -1.14887,-2.829181 -2.38154,-5.624239 -3.61705,-8.416339 -1.40892,-3.09659 -2.83761,-6.18382 -4.35178,-9.23062 -1.33411,-2.74669 -2.74956,-5.45378 -4.16767,-8.15772 -1.61137,-2.9962 -3.24181,-5.98176 -4.95477,-8.92138 -1.51339,-2.65213 -3.10551,-5.25923 -4.69991,-7.8631 -1.80662,-2.88272 -3.63159,-5.75355 -5.53592,-8.573 -1.68611,-2.54582 -3.44763,-5.04159 -5.21137,-7.53388 -1.99403,-2.7564 -4.00556,-5.49974 -6.09276,-8.18664 -1.85132,-2.42831 -3.77463,-4.80165 -5.69988,-7.17139 -2.17254,-2.61797 -4.36168,-5.22176 -6.62257,-7.76421 -2.00837,-2.3001 -4.085,-4.54048 -6.16325,-6.77723 -2.3415,-2.46805 -4.69862,-4.92084 -7.1233,-7.30761 -2.15662,-2.16175 -4.37738,-4.25939 -6.5995,-6.35331 -2.50007,-2.30725 -5.01473,-4.5982 -7.59257,-6.81866 -2.29541,-2.01374 -4.65031,-3.95956 -7.00651,-5.90134 -2.64775,-2.1362 -5.30897,-4.2552 -8.02842,-6.2998 -2.42392,-1.85706 -4.90293,-3.64208 -7.38278,-5.42324 -2.78363,-1.95582 -5.57957,-3.89355 -8.42877,-5.75306 -2.5419,-1.69203 -5.13383,-3.30875 -7.72646,-4.9214 -2.90732,-1.76674 -5.82571,-3.51464 -8.79201,-5.18103 -2.64852,-1.51963 -5.34202,-2.96072 -8.03593,-4.39771 -3.01818,-1.56984 -6.04615,-3.12016 -9.11648,-4.58603 -2.74357,-1.34053 -5.52682,-2.59966 -8.3102,-3.85473 -3.11568,-1.36608 -6.23984,-2.71203 -9.40068,-3.97086 -2.82652,-1.15547 -5.68719,-2.22718 -8.54774,-3.29475 -3.19949,-1.15629 -6.4061,-2.29192 -9.64353,-3.33818 -2.89694,-0.96531 -5.82239,-1.84481 -8.74744,-2.72019 -3.26916,-0.94142 -6.54408,-1.86175 -9.8438,-2.69086 -2.95462,-0.77094 -5.932002,-1.45429 -8.908708,-2.1336 -3.324494,-0.72238 -6.653313,-1.42334 -10.000838,-2.03165 -2.99925,-0.57316 -6.015425,-1.05731 -9.030639,-1.53756 -3.365078,-0.50013 -6.733048,-0.97862 -10.113528,-1.36348 -3.030677,-0.37287 -6.072329,-0.65587 -9.11277,-0.93494 -3.390855,-0.27564 -6.783159,-0.52951 -10.181728,-0.68918 -2.777957,-0.1699 -5.561542,-0.21277 -8.342316,-0.3191 0.399356,0.33549 -0.536401,0.0832 -0.769015,0.14052 -1.410328,-0.0468 -2.820656,-0.0937 -4.230985,-0.14052 0.05599,0.0572 0.111979,0.11442 0.167969,0.17163 z M -270.62941,43.597387 c 0.19132,3.626085 0.37745,7.252509 0.68917,10.870712 0.23167,3.086557 0.55807,6.165788 0.8873,9.243127 0.39735,3.378724 0.81635,6.754576 1.32906,10.118008 0.4328,3.022733 0.95503,6.032589 1.48086,9.04022 0.62077,3.344913 1.26294,6.685532 1.99768,10.00755 0.63239,2.98735 1.3534,5.95585 2.07767,8.921946 0.84133,3.29633 1.70375,6.58694 2.65735,9.85285 0.82928,2.9388 1.74562,5.85295 2.66516,8.76445 1.05829,3.23324 2.13724,6.45936 3.30552,9.65479 1.02251,2.87723 2.13022,5.72411 3.24095,8.56813 1.27053,3.15589 2.5612,6.30333 3.93897,9.41421 1.2112,2.80306 2.50541,5.57015 3.80244,8.3342 1.47717,3.06459 2.97389,6.11942 4.55508,9.13198 1.39454,2.71649 2.86964,5.39153 4.34723,8.06341 1.67728,2.95987 3.37342,5.90868 5.15115,8.80966 1.5718,2.61789 3.22103,5.18921 4.87269,7.75711 1.87001,2.84198 3.7581,5.67167 5.72435,8.44826 1.74205,2.5079 3.5585,4.96402 5.37696,7.41669 2.05448,2.71161 4.12617,5.40976 6.27238,8.04972 1.90465,2.38673 3.88007,4.71688 5.85728,7.04346 2.2299,2.56931 4.4761,5.12403 6.79283,7.61571 2.05887,2.25502 4.18451,4.44899 6.31178,6.63919 2.39553,2.41564 4.80634,4.81566 7.28333,7.1481 2.20401,2.11338 4.47047,4.16154 6.73843,6.20569 2.55066,2.25124 5.11551,4.48591 7.74175,6.64894 2.33933,1.96255 4.73686,3.85559 7.13545,5.74477 2.69435,2.07707 5.4018,4.13663 8.16587,6.12045 2.46451,1.80287 4.98226,3.53281 7.50098,5.25859 2.82632,1.89361 5.66453,3.76891 8.55413,5.56502 2.57869,1.6354 5.20579,3.19434 7.83347,4.7492 2.94572,1.70191 5.90208,3.38474 8.90452,4.98507 2.68151,1.46064 5.40629,2.8417 8.13135,4.21872 3.05219,1.50268 6.11375,2.98561 9.21579,4.38313 2.772556,1.27944 5.582956,2.47667 8.393406,3.66979 2.643544,1.0888 5.295257,2.15695 7.954644,3.20567 3.014688,1.24275 6.068644,2.389 9.124019,3.52688 3.199144,1.1573 6.406794,2.28991 9.643987,3.33687 2.877607,0.95738 5.782982,1.83123 8.688125,2.70046 3.269169,0.94142 6.544082,1.86175 9.843807,2.69087 2.954616,0.77093 5.932,1.45429 8.908705,2.1336 3.324493,0.72238 6.653311,1.42334 10.000838,2.03165 2.99925,0.57316 6.015425,1.05731 9.03064,1.53755 3.365077,0.50014 6.733047,0.97863 10.1135279,1.36348 3.0306763,0.37287 6.0723282,0.65587 9.11277006,0.93494 3.39085504,0.27564 6.78315874,0.52951 10.18172804,0.68919 2.777956,0.16989 5.561542,0.21276 8.342316,0.31909 -0.735596,-0.75207 -1.471192,-1.50415 -2.206788,-2.25622 1.15285,0.0702 2.308046,0.0874 3.462037,0.13183 -26.3183893,-25.77426 -52.646969,-51.53835 -78.958987,-77.31898 -22.317856,-22.81235 -44.625525,-45.63489 -66.949755,-68.44088 -23.97946,-23.48412 -47.96912,-46.95804 -71.94221,-70.44852 -21.11719,-21.589922 -42.23438,-43.179846 -63.35157,-64.769767 0.0352,0.950826 0.0491,1.902573 0.10694,2.852418 -1.74821,-1.711752 -3.49642,-3.423504 -5.24463,-5.135255 0.0321,0.996623 0.0641,1.993246 0.0962,2.989868 -1.69873,-1.663289 -3.39746,-3.326578 -5.09619,-4.989868 0.0692,2.150757 0.13835,4.301514 0.20752,6.452271 z m 588.32947,-1.157715 c 0.0331,-0.99585 0.0662,-1.991699 0.0992,-2.987549 -1.75077,1.712443 -3.50154,3.424886 -5.25232,5.137329 0.0637,-1.056291 0.0801,-2.114678 0.12061,-3.171996 -23.62099,24.119251 -47.23179,48.248692 -70.85914,72.361574 -23.9632,23.44347 -47.93657,46.87674 -71.8934,70.32657 -22.30162,22.77175 -44.59305,45.55369 -66.90104,68.31906 -23.849603,23.32739 -47.699209,46.65478 -71.548814,69.98218 1.050024,-0.0389 2.101076,-0.0541 3.150024,-0.11792 -0.733765,0.74938 -1.467529,1.49877 -2.201294,2.24817 3.629408,-0.11098 7.25904,-0.21677 10.883231,-0.44834 3.090933,-0.16333 6.176651,-0.42136 9.26053,-0.68241 3.386725,-0.32251 6.771061,-0.66672 10.145062,-1.1048 3.031533,-0.36573 6.052131,-0.82138 9.070629,-1.28045 3.357884,-0.54646 6.711936,-1.11445 10.049417,-1.7756 3.000582,-0.56618 5.984325,-1.22118 8.965713,-1.87962 3.314181,-0.76818 6.623112,-1.55757 9.909372,-2.43867 2.95638,-0.76402 5.89005,-1.61563 8.82115,-2.47045 3.25592,-0.98639 6.50518,-1.99362 9.7257,-3.09095 2.89917,-0.95857 5.76983,-2.00305 8.63775,-3.05053 3.0324,-1.14637 6.06097,-2.30249 9.05511,-3.54598 2.70261,-1.04724 5.38532,-2.14795 8.05789,-3.26942 3.10848,-1.33042 6.20561,-2.68631 9.2668,-4.12277 2.75602,-1.2655 5.4752,-2.6112 8.19112,-3.95996 3.03118,-1.54464 6.05216,-3.1086 9.02898,-4.75615 2.68495,-1.45439 5.32676,-2.98823 7.96527,-4.52464 2.92192,-1.74243 5.83238,-3.50344 8.69331,-5.3448 2.58253,-1.6293 5.11664,-3.33516 7.64737,-5.04326 2.79992,-1.93248 5.58715,-3.88277 8.31953,-5.91009 2.46864,-1.79717 4.88402,-3.66735 7.29579,-5.53965 2.66548,-2.11406 5.31713,-4.24505 7.90896,-6.44921 2.34392,-1.95704 4.62987,-3.98337 6.91205,-6.0116 2.51925,-2.28631 5.0236,-4.58857 7.46344,-6.95984 2.20891,-2.10828 4.35532,-4.28193 6.49788,-6.45717 2.36197,-2.44848 4.708,-4.91188 6.98515,-7.43981 2.06418,-2.25015 4.06138,-4.56164 6.05488,-6.87425 2.19432,-2.59975 4.37174,-5.21336 6.47598,-7.88689 1.91022,-2.38226 3.74982,-4.82104 5.5854,-7.26089 2.01687,-2.73974 4.01597,-5.49215 5.93826,-8.29939 1.74798,-2.50373 3.42149,-5.05933 5.09113,-7.61561 1.83065,-2.86752 3.64273,-5.74652 5.37443,-8.67519 1.57791,-2.61422 3.07824,-5.27518 4.57454,-7.93661 1.63629,-2.98269 3.25328,-5.97559 4.78672,-9.01274 1.4009,-2.71322 2.72137,-5.46787 4.03773,-8.22276 1.43472,-3.08473 2.84951,-6.17837 4.17805,-9.3106 1.21775,-2.80017 2.35242,-5.63639 3.48304,-8.47254 1.22688,-3.17315 2.43326,-6.35388 3.55097,-9.56741 1.02923,-2.87482 1.97314,-5.7801 2.91304,-8.68504 1.01358,-3.24755 2.00621,-6.50129 2.9082,-9.78186 0.83619,-2.9368 1.58523,-5.89834 2.33026,-8.85927 0.79579,-3.307647 1.57026,-6.620091 2.25254,-9.953291 0.63942,-2.985875 1.1903,-5.990625 1.73717,-8.994518 0.57446,-3.353175 1.12734,-6.709716 1.58691,-10.080836 0.43983,-3.021699 0.79015,-6.05635 1.13648,-9.089883 0.35072,-3.383898 0.67965,-6.769731 0.91439,-10.163927 0.23827,-3.044208 0.38645,-6.095389 0.53068,-9.145195 0.0625,-1.880033 0.12492,-3.760064 0.18737,-5.640097 -1.69975,1.662516 -3.39949,3.325033 -5.09924,4.987549 z M 21.434312,322.43699 c 0.710042,0.0236 1.420085,0.0472 2.130127,0.0708 -0.366862,-0.35925 -0.733724,-0.71851 -1.100586,-1.07776 -0.34318,0.33565 -0.686361,0.67131 -1.029541,1.00696 z m 6.97522,0.0681 c 0.708333,-0.0228 1.416666,-0.0456 2.125,-0.0684 -0.342326,-0.3352 -0.684652,-0.67041 -1.026978,-1.00561 -0.366007,0.35799 -0.732015,0.71598 -1.098022,1.07397 z"
       id="path6120"
       inkscape:connector-curvature="0"
       transform="matrix(0.26458333,0,0,0.26458333,0,283.77081)" />
    <path
       style="opacity:0;fill:#918a6f;stroke:#000000;stroke-width:0.036875;stroke-linecap:square;stroke-miterlimit:4;stroke-dasharray:none;stroke-opacity:1"
       d="m 8.102769,-276.33572 c -3.626085,0.19132 -7.25250879,0.37745 -10.8707125,0.68917 -3.0865563,0.23167 -6.1657876,0.55807 -9.2431265,0.8873 -3.378724,0.39735 -6.754576,0.81635 -10.118008,1.32906 -3.022734,0.4328 -6.032586,0.95503 -9.040222,1.48086 -3.344914,0.62077 -6.685529,1.26294 -10.007551,1.99768 -2.987346,0.63239 -5.955848,1.3534 -8.921941,2.07767 -3.296332,0.84133 -6.586944,1.70375 -9.85285,2.65735 -2.938807,0.82928 -5.852957,1.74562 -8.764457,2.66516 -3.233231,1.05829 -6.459356,2.13724 -9.654781,3.30552 -2.877237,1.02251 -5.724119,2.13022 -8.568137,3.24095 -3.155888,1.27053 -6.303325,2.5612 -9.414207,3.93897 -2.803056,1.2112 -5.570146,2.50541 -8.334196,3.80244 -3.0646,1.47717 -6.11942,2.97389 -9.13199,4.55508 -2.71648,1.39454 -5.39153,2.86964 -8.0634,4.34723 -2.95987,1.67728 -5.90868,3.37342 -8.80966,5.15115 -2.6179,1.5718 -5.18922,3.22103 -7.75712,4.87269 -2.84197,1.87001 -5.67167,3.7581 -8.44826,5.72435 -2.5079,1.74205 -4.96401,3.5585 -7.41669,5.37696 -2.71161,2.05448 -5.40976,4.12617 -8.04972,6.27238 -2.38673,1.90465 -4.71688,3.88007 -7.04345,5.85729 -2.56931,2.22989 -5.12404,4.47609 -7.61571,6.79282 -2.25503,2.05888 -4.44899,4.18451 -6.6392,6.31178 -2.41564,2.39553 -4.81565,4.80635 -7.14809,7.28333 -2.11339,2.20402 -4.16155,4.47047 -6.2057,6.73843 -2.25123,2.55066 -4.48591,5.11551 -6.64894,7.74175 -1.96254,2.33933 -3.85559,4.73686 -5.74476,7.13545 -2.07707,2.69435 -4.13663,5.4018 -6.12046,8.16587 -1.80286,2.46451 -3.5328,4.98227 -5.25859,7.50098 -1.89361,2.82632 -3.76891,5.66453 -5.56501,8.55413 -1.6354,2.57869 -3.19435,5.20579 -4.7492,7.83347 -1.70192,2.94572 -3.38475,5.90209 -4.98507,8.90452 -1.46065,2.68152 -2.8417,5.40629 -4.21872,8.13135 -1.50268,3.05219 -2.98561,6.11375 -4.38313,9.21579 -1.27944,2.77256 -2.47667,5.58296 -3.66979,8.393407 -1.29677,3.145193 -2.57323,6.298412 -3.76184,9.48635 -1.09265,2.851375 -2.1007,5.735081 -3.10467,8.61855 -1.08515,3.224318 -2.14951,6.4553 -3.12395,9.715081 -0.901,2.917569 -1.71546,5.861775 -2.52585,8.805475 -0.8688,3.289244 -1.71639,6.58375 -2.4723,9.901031 -0.70537,2.970983 -1.32263,5.962795 -1.93588,8.953836 -0.6486,3.33964 -1.27567,6.683132 -1.80969,10.043279 -0.50658,3.011212 -0.92394,6.037353 -1.33734,9.06246 -0.42556,3.375319 -0.82939,6.753053 -1.13928,10.14123 -0.30569,3.0381877 -0.52116,6.0853683 -0.73288,9.1312421 -0.20061,3.39609562 -0.37938,6.7931594 -0.46371,10.1944075 -0.021,0.6307214 -0.0419,1.2614428 -0.0629,1.8921642 1.72266,-1.6849367 3.44532,-3.3698729 5.16797,-5.0548098 -0.056,1.6849369 -0.11198,3.3698731 -0.16797,5.0548098 1.72266,-1.6849367 3.44532,-3.3698729 5.16797,-5.0548098 0.0197,0.3080537 -0.0893,0.9171662 0.007,1.04482 8.23809,-8.4034 16.45585,-16.827137 24.70666,-25.217803 6.03743,-5.905229 12.07486,-11.810459 18.11228,-17.715689 -1.78238,3.256551 -3.56477,6.513103 -5.34716,9.769654 35.06635,-35.809753 70.12505,-71.627155 105.19618,-107.432135 39.392941,-38.53417 78.793526,-77.06071 118.18170396,-115.59966 1.06723504,-1.08995 2.13447064,-2.1799 3.20170624,-3.26984 -1.7848794,0.13939 -3.56693124,0.31176 -5.348755,0.48511 7.4853513,-7.32145 14.9707028,-14.64291 22.4560548,-21.96436 -0.319678,-0.0189 -0.925331,0.0879 -1.067596,-0.009 0.228169,-0.25895 -0.643208,-0.0348 -0.880618,-0.0892 -1.387705,0.0446 -2.77541,0.0892 -4.163114,0.13388 0.386801,-0.32866 -0.546037,-0.0775 -0.774418,-0.13588 -1.838418,0.0591 -3.6768369,0.11825 -5.515255,0.17738 z m 13.331665,-0.10718 c 0.514364,0.50362 1.028727,1.00725 1.543091,1.51087 0.525838,-0.53707 1.051676,-1.07414 1.577515,-1.61121 -1.040202,0.0335 -2.080404,0.0669 -3.120606,0.10034 z m 7.708984,1.3606 c 0.463745,-0.45362 0.92749,-0.90723 1.391235,-1.36084 -0.937906,-0.0312 -1.875813,-0.0623 -2.81372,-0.0935 0.474162,0.48478 0.948324,0.96957 1.422485,1.45435 z m 3.745484,-1.28272 c -0.474406,-0.0157 -0.948812,-0.0315 -1.423218,-0.0472 7.469849,7.31397 14.939698,14.62793 22.409546,21.94189 -1.671347,-0.16322 -3.343,-0.32304 -5.01709,-0.4558 3.612022,3.67438 7.187177,7.3856 10.822941,11.03625 39.214314,38.39985 78.436269,76.79205 117.645819,115.19667 32.13366,32.85306 64.26733,65.706129 96.40099,98.559192 -1.71078,-3.066895 -3.42155,-6.13379 -5.13233,-9.200684 9.02806,8.848459 18.07392,17.679119 27.09084,26.538716 5.6606,5.7873065 11.3212,11.5746127 16.9818,17.361919 0.0191,-0.3106919 -0.16449,-1.0826663 0.24305,-0.50962 1.63155,1.5974856 3.2631,3.1949711 4.89465,4.7924566 -0.0542,-1.6849365 -0.1084,-3.3698729 -0.1626,-5.0548098 1.72086,1.6849369 3.44173,3.3698733 5.1626,5.0548098 -0.11098,-3.6294079 -0.21677,-7.2590398 -0.44834,-10.883231 -0.16333,-3.0909331 -0.42136,-6.1766513 -0.68241,-9.2605296 -0.32251,-3.386725 -0.66672,-6.771062 -1.1048,-10.145062 -0.36573,-3.031533 -0.82138,-6.052132 -1.28045,-9.07063 -0.54646,-3.357883 -1.11445,-6.711935 -1.7756,-10.049415 -0.56618,-3.000584 -1.22118,-5.984329 -1.87962,-8.965714 -0.76818,-3.314181 -1.55757,-6.623113 -2.43867,-9.909369 -0.76402,-2.956381 -1.61563,-5.89005 -2.47045,-8.82115 -0.98639,-3.255919 -1.99362,-6.505187 -3.09095,-9.725706 -0.95857,-2.899163 -2.00305,-5.769831 -3.05053,-8.637744 -1.2003,-3.183244 -2.42095,-6.358475 -3.72957,-9.49905 -1.14887,-2.829181 -2.38154,-5.624239 -3.61705,-8.416339 -1.40892,-3.09659 -2.83761,-6.18382 -4.35178,-9.23062 -1.33411,-2.74669 -2.74956,-5.45378 -4.16767,-8.15772 -1.61137,-2.9962 -3.24181,-5.98176 -4.95477,-8.92138 -1.51339,-2.65213 -3.10551,-5.25923 -4.69991,-7.8631 -1.80662,-2.88272 -3.63159,-5.75355 -5.53592,-8.573 -1.68611,-2.54582 -3.44763,-5.04159 -5.21137,-7.53388 -1.99403,-2.7564 -4.00556,-5.49974 -6.09276,-8.18664 -1.85132,-2.42831 -3.77463,-4.80165 -5.69988,-7.17139 -2.17254,-2.61797 -4.36168,-5.22176 -6.62257,-7.76421 -2.00837,-2.3001 -4.085,-4.54048 -6.16325,-6.77723 -2.3415,-2.46805 -4.69862,-4.92084 -7.1233,-7.30761 -2.15662,-2.16175 -4.37738,-4.25939 -6.5995,-6.35331 -2.50007,-2.30725 -5.01473,-4.5982 -7.59257,-6.81866 -2.29541,-2.01374 -4.65031,-3.95956 -7.00651,-5.90134 -2.64775,-2.1362 -5.30897,-4.2552 -8.02842,-6.2998 -2.42392,-1.85706 -4.90293,-3.64208 -7.38278,-5.42324 -2.78363,-1.95582 -5.57957,-3.89355 -8.42877,-5.75306 -2.5419,-1.69203 -5.13383,-3.30875 -7.72646,-4.9214 -2.90732,-1.76674 -5.82571,-3.51464 -8.79201,-5.18103 -2.64852,-1.51963 -5.34202,-2.96072 -8.03593,-4.39771 -3.01818,-1.56984 -6.04615,-3.12016 -9.11648,-4.58603 -2.74357,-1.34053 -5.52682,-2.59966 -8.3102,-3.85473 -3.11568,-1.36608 -6.23984,-2.71203 -9.40068,-3.97086 -2.82652,-1.15547 -5.68719,-2.22718 -8.54774,-3.29475 -3.19949,-1.15629 -6.4061,-2.29192 -9.64353,-3.33818 -2.89694,-0.96531 -5.82239,-1.84481 -8.74744,-2.72019 -3.26916,-0.94142 -6.54408,-1.86175 -9.8438,-2.69086 -2.95462,-0.77094 -5.932002,-1.45429 -8.908708,-2.1336 -3.324494,-0.72238 -6.653313,-1.42334 -10.000838,-2.03165 -2.99925,-0.57316 -6.015425,-1.05731 -9.030639,-1.53756 -3.365078,-0.50013 -6.733048,-0.97862 -10.113528,-1.36348 -3.030677,-0.37287 -6.072329,-0.65587 -9.11277,-0.93494 -3.390855,-0.27564 -6.783159,-0.52951 -10.181728,-0.68918 -2.777957,-0.1699 -5.561542,-0.21277 -8.342316,-0.3191 0.399356,0.33549 -0.536401,0.0832 -0.769015,0.14052 -1.410328,-0.0468 -2.820656,-0.0937 -4.230985,-0.14052 0.05599,0.0572 0.111979,0.11442 0.167969,0.17163 z M -270.62941,43.597387 c 0.19132,3.626085 0.37745,7.252509 0.68917,10.870712 0.23167,3.086557 0.55807,6.165788 0.8873,9.243127 0.39735,3.378724 0.81635,6.754576 1.32906,10.118008 0.4328,3.022733 0.95503,6.032589 1.48086,9.04022 0.62077,3.344913 1.26294,6.685532 1.99768,10.00755 0.63239,2.98735 1.3534,5.95585 2.07767,8.921946 0.84133,3.29633 1.70375,6.58694 2.65735,9.85285 0.82928,2.9388 1.74562,5.85295 2.66516,8.76445 1.05829,3.23324 2.13724,6.45936 3.30552,9.65479 1.02251,2.87723 2.13022,5.72411 3.24095,8.56813 1.27053,3.15589 2.5612,6.30333 3.93897,9.41421 1.2112,2.80306 2.50541,5.57015 3.80244,8.3342 1.47717,3.06459 2.97389,6.11942 4.55508,9.13198 1.39454,2.71649 2.86964,5.39153 4.34723,8.06341 1.67728,2.95987 3.37342,5.90868 5.15115,8.80966 1.5718,2.61789 3.22103,5.18921 4.87269,7.75711 1.87001,2.84198 3.7581,5.67167 5.72435,8.44826 1.74205,2.5079 3.5585,4.96402 5.37696,7.41669 2.05448,2.71161 4.12617,5.40976 6.27238,8.04972 1.90465,2.38673 3.88007,4.71688 5.85728,7.04346 2.2299,2.56931 4.4761,5.12403 6.79283,7.61571 2.05887,2.25502 4.18451,4.44899 6.31178,6.63919 2.39553,2.41564 4.80634,4.81566 7.28333,7.1481 2.20401,2.11338 4.47047,4.16154 6.73843,6.20569 2.55066,2.25124 5.11551,4.48591 7.74175,6.64894 2.33933,1.96255 4.73686,3.85559 7.13545,5.74477 2.69435,2.07707 5.4018,4.13663 8.16587,6.12045 2.46451,1.80287 4.98226,3.53281 7.50098,5.25859 2.82632,1.89361 5.66453,3.76891 8.55413,5.56502 2.57869,1.6354 5.20579,3.19434 7.83347,4.7492 2.94572,1.70191 5.90208,3.38474 8.90452,4.98507 2.68151,1.46064 5.40629,2.8417 8.13135,4.21872 3.05219,1.50268 6.11375,2.98561 9.21579,4.38313 2.772556,1.27944 5.582956,2.47667 8.393406,3.66979 2.643544,1.0888 5.295257,2.15695 7.954644,3.20567 3.014688,1.24275 6.068644,2.389 9.124019,3.52688 3.199144,1.1573 6.406794,2.28991 9.643987,3.33687 2.877607,0.95738 5.782982,1.83123 8.688125,2.70046 3.269169,0.94142 6.544082,1.86175 9.843807,2.69087 2.954616,0.77093 5.932,1.45429 8.908705,2.1336 3.324493,0.72238 6.653311,1.42334 10.000838,2.03165 2.99925,0.57316 6.015425,1.05731 9.03064,1.53755 3.365077,0.50014 6.733047,0.97863 10.1135279,1.36348 3.0306763,0.37287 6.0723282,0.65587 9.11277006,0.93494 3.39085504,0.27564 6.78315874,0.52951 10.18172804,0.68919 2.777956,0.16989 5.561542,0.21276 8.342316,0.31909 -0.735596,-0.75207 -1.471192,-1.50415 -2.206788,-2.25622 1.15285,0.0702 2.308046,0.0874 3.462037,0.13183 -26.3183893,-25.77426 -52.646969,-51.53835 -78.958987,-77.31898 -22.317856,-22.81235 -44.625525,-45.63489 -66.949755,-68.44088 -23.97946,-23.48412 -47.96912,-46.95804 -71.94221,-70.44852 -21.11719,-21.589922 -42.23438,-43.179846 -63.35157,-64.769767 0.0352,0.950826 0.0491,1.902573 0.10694,2.852418 -1.74821,-1.711752 -3.49642,-3.423504 -5.24463,-5.135255 0.0321,0.996623 0.0641,1.993246 0.0962,2.989868 -1.69873,-1.663289 -3.39746,-3.326578 -5.09619,-4.989868 0.0692,2.150757 0.13835,4.301514 0.20752,6.452271 z m 588.32947,-1.157715 c 0.0331,-0.99585 0.0662,-1.991699 0.0992,-2.987549 -1.75077,1.712443 -3.50154,3.424886 -5.25232,5.137329 0.0637,-1.056291 0.0801,-2.114678 0.12061,-3.171996 -23.62099,24.119251 -47.23179,48.248692 -70.85914,72.361574 -23.9632,23.44347 -47.93657,46.87674 -71.8934,70.32657 -22.30162,22.77175 -44.59305,45.55369 -66.90104,68.31906 -23.849603,23.32739 -47.699209,46.65478 -71.548814,69.98218 1.050024,-0.0389 2.101076,-0.0541 3.150024,-0.11792 -0.733765,0.74938 -1.467529,1.49877 -2.201294,2.24817 3.629408,-0.11098 7.25904,-0.21677 10.883231,-0.44834 3.090933,-0.16333 6.176651,-0.42136 9.26053,-0.68241 3.386725,-0.32251 6.771061,-0.66672 10.145062,-1.1048 3.031533,-0.36573 6.052131,-0.82138 9.070629,-1.28045 3.357884,-0.54646 6.711936,-1.11445 10.049417,-1.7756 3.000582,-0.56618 5.984325,-1.22118 8.965713,-1.87962 3.314181,-0.76818 6.623112,-1.55757 9.909372,-2.43867 2.95638,-0.76402 5.89005,-1.61563 8.82115,-2.47045 3.25592,-0.98639 6.50518,-1.99362 9.7257,-3.09095 2.89917,-0.95857 5.76983,-2.00305 8.63775,-3.05053 3.0324,-1.14637 6.06097,-2.30249 9.05511,-3.54598 2.70261,-1.04724 5.38532,-2.14795 8.05789,-3.26942 3.10848,-1.33042 6.20561,-2.68631 9.2668,-4.12277 2.75602,-1.2655 5.4752,-2.6112 8.19112,-3.95996 3.03118,-1.54464 6.05216,-3.1086 9.02898,-4.75615 2.68495,-1.45439 5.32676,-2.98823 7.96527,-4.52464 2.92192,-1.74243 5.83238,-3.50344 8.69331,-5.3448 2.58253,-1.6293 5.11664,-3.33516 7.64737,-5.04326 2.79992,-1.93248 5.58715,-3.88277 8.31953,-5.91009 2.46864,-1.79717 4.88402,-3.66735 7.29579,-5.53965 2.66548,-2.11406 5.31713,-4.24505 7.90896,-6.44921 2.34392,-1.95704 4.62987,-3.98337 6.91205,-6.0116 2.51925,-2.28631 5.0236,-4.58857 7.46344,-6.95984 2.20891,-2.10828 4.35532,-4.28193 6.49788,-6.45717 2.36197,-2.44848 4.708,-4.91188 6.98515,-7.43981 2.06418,-2.25015 4.06138,-4.56164 6.05488,-6.87425 2.19432,-2.59975 4.37174,-5.21336 6.47598,-7.88689 1.91022,-2.38226 3.74982,-4.82104 5.5854,-7.26089 2.01687,-2.73974 4.01597,-5.49215 5.93826,-8.29939 1.74798,-2.50373 3.42149,-5.05933 5.09113,-7.61561 1.83065,-2.86752 3.64273,-5.74652 5.37443,-8.67519 1.57791,-2.61422 3.07824,-5.27518 4.57454,-7.93661 1.63629,-2.98269 3.25328,-5.97559 4.78672,-9.01274 1.4009,-2.71322 2.72137,-5.46787 4.03773,-8.22276 1.43472,-3.08473 2.84951,-6.17837 4.17805,-9.3106 1.21775,-2.80017 2.35242,-5.63639 3.48304,-8.47254 1.22688,-3.17315 2.43326,-6.35388 3.55097,-9.56741 1.02923,-2.87482 1.97314,-5.7801 2.91304,-8.68504 1.01358,-3.24755 2.00621,-6.50129 2.9082,-9.78186 0.83619,-2.9368 1.58523,-5.89834 2.33026,-8.85927 0.79579,-3.307647 1.57026,-6.620091 2.25254,-9.953291 0.63942,-2.985875 1.1903,-5.990625 1.73717,-8.994518 0.57446,-3.353175 1.12734,-6.709716 1.58691,-10.080836 0.43983,-3.021699 0.79015,-6.05635 1.13648,-9.089883 0.35072,-3.383898 0.67965,-6.769731 0.91439,-10.163927 0.23827,-3.044208 0.38645,-6.095389 0.53068,-9.145195 0.0625,-1.880033 0.12492,-3.760064 0.18737,-5.640097 -1.69975,1.662516 -3.39949,3.325033 -5.09924,4.987549 z M 21.434312,322.43699 c 0.710042,0.0236 1.420085,0.0472 2.130127,0.0708 -0.366862,-0.35925 -0.733724,-0.71851 -1.100586,-1.07776 -0.34318,0.33565 -0.686361,0.67131 -1.029541,1.00696 z m 6.97522,0.0681 c 0.708333,-0.0228 1.416666,-0.0456 2.125,-0.0684 -0.342326,-0.3352 -0.684652,-0.67041 -1.026978,-1.00561 -0.366007,0.35799 -0.732015,0.71598 -1.098022,1.07397 z"
       id="path6132"
       inkscape:connector-curvature="0"
       transform="matrix(0.26458333,0,0,0.26458333,0,283.77081)" />
    <path
       style="opacity:0;fill:#918a6f;stroke:#000000;stroke-width:0.036875;stroke-linecap:square;stroke-miterlimit:4;stroke-dasharray:none;stroke-opacity:1"
       d="m 10.665269,-284.02322 c -3.626085,0.19132 -7.2525088,0.37745 -10.87071254,0.68917 -3.08655626,0.23167 -6.16578756,0.55807 -9.24312626,0.8873 -3.3787242,0.39735 -6.7545762,0.81635 -10.1180082,1.32906 -3.022734,0.4328 -6.032586,0.95503 -9.040222,1.48086 -3.344914,0.62077 -6.685529,1.26294 -10.007551,1.99768 -2.987346,0.63239 -5.955846,1.3534 -8.921944,2.07767 -3.296329,0.84133 -6.586941,1.70375 -9.852847,2.65735 -2.938807,0.82928 -5.852957,1.74561 -8.764457,2.66516 -2.896606,0.98827 -5.833831,1.84926 -8.729081,2.84179 -3.200431,1.04333 -6.366269,2.19056 -9.526731,3.34801 -3.183638,1.19931 -6.3577,2.42293 -9.498544,3.73087 -2.809331,1.14233 -5.585469,2.36626 -8.358455,3.59349 -3.09658,1.40893 -6.18381,2.83761 -9.23061,4.35178 -2.74669,1.33411 -5.45379,2.74956 -8.15772,4.16768 -2.9962,1.61137 -5.98177,3.24181 -8.92138,4.95477 -2.65213,1.51339 -5.25924,3.1055 -7.8631,4.69991 -2.88272,1.80662 -5.75355,3.63159 -8.573,5.53592 -2.54582,1.68611 -5.04159,3.44763 -7.53389,5.21137 -2.75639,1.99403 -5.49973,4.00556 -8.18663,6.09276 -2.42832,1.85132 -4.80165,3.77463 -7.17139,5.69987 -2.61798,2.17255 -5.22176,4.36169 -7.76421,6.62258 -2.3001,2.00837 -4.54048,4.085 -6.77723,6.16324 -2.46805,2.3415 -4.92084,4.69862 -7.30761,7.1233 -2.16175,2.15662 -4.25939,4.37738 -6.35331,6.5995 -2.30725,2.50007 -4.5982,5.01474 -6.81867,7.59258 -2.01373,2.29541 -3.95955,4.6503 -5.90133,7.0065 -2.1362,2.64775 -4.2552,5.30897 -6.2998,8.02842 -1.85706,2.42393 -3.64208,4.90293 -5.42324,7.38279 -1.95582,2.78363 -3.89355,5.57957 -5.75306,8.42877 -1.69203,2.5419 -3.30875,5.13382 -4.9214,7.72646 -1.76674,2.90731 -3.51464,5.82571 -5.18103,8.792 -1.51963,2.64853 -2.96072,5.34203 -4.39771,8.03594 -1.56984,3.01817 -3.12016,6.04615 -4.58603,9.11647 -1.34053,2.74357 -2.59966,5.52683 -3.85473,8.3102 -1.36608,3.11569 -2.71203,6.23985 -3.97086,9.400685 -1.15547,2.826519 -2.22718,5.687194 -3.29475,8.547738 -1.15629,3.199494 -2.29192,6.406106 -3.33818,9.643537 -0.96531,2.896938 -1.84481,5.822382 -2.72019,8.747432 -0.94142,3.269168 -1.86175,6.544081 -2.69086,9.843806 -0.77094,2.954619 -1.45429,5.932 -2.1336,8.908705 -0.72238,3.324493 -1.42334,6.653311 -2.03165,10.000839 -0.57316,2.99925 -1.05731,6.015425 -1.53756,9.030639 -0.50013,3.365078 -0.97862,6.733048 -1.36348,10.113528 -0.37287,3.030676 -0.65587,6.072328 -0.93494,9.11277 -0.27564,3.390855 -0.52951,6.7831589 -0.68918,10.1817277 -0.1699,2.7779569 -0.21277,5.56154252 -0.3191,8.3423161 2.045,-2.00020346 4.09001,-4.0004067 6.13501,-6.0006105 -0.045,1.35437 -0.09,2.70874067 -0.13501,4.06311048 16.98087,-16.61532778 33.97448,-33.21791878 50.94739,-49.84120778 30.29963,-30.941461 60.59161,-61.890565 90.89601,-92.827255 32.324948,-31.62092 64.657541,-63.23421 96.977722,-94.85992 15.521419,-15.85219 31.0428382,-31.70439 46.564257,-47.55658 -2.150756,0.0692 -4.301513,0.13835 -6.45227,0.20752 z m 76.525389,52.99622 c 32.877792,32.19554 65.763222,64.38344 98.636242,96.58375 30.81615,31.50215 61.62467,63.011954 92.44561,94.509339 13.99029,13.69838 27.98059,27.39676 41.97089,41.0951406 -0.0443,-1.37617976 -0.0885,-2.7523598 -0.13282,-4.1285398 2.0651,2.02201316 4.13021,4.0440265 6.19532,6.0660398 -0.11098,-3.62940788 -0.21677,-7.2590398 -0.44834,-10.883231 -0.16333,-3.0909336 -0.42136,-6.1766516 -0.68241,-9.2605296 -0.32251,-3.386725 -0.66672,-6.771062 -1.1048,-10.145062 -0.36573,-3.031533 -0.82138,-6.052132 -1.28045,-9.07063 -0.54646,-3.357883 -1.11445,-6.711935 -1.7756,-10.049415 -0.56618,-3.000584 -1.22118,-5.984329 -1.87962,-8.965715 -0.76818,-3.31418 -1.55757,-6.623112 -2.43867,-9.909368 -0.76402,-2.956381 -1.61563,-5.89005 -2.47045,-8.82115 -0.98639,-3.255919 -1.99362,-6.505187 -3.09095,-9.725706 -0.95857,-2.899163 -2.00305,-5.769831 -3.05053,-8.637744 -1.2003,-3.183244 -2.42095,-6.358475 -3.72957,-9.499049 -1.14887,-2.82918 -2.38154,-5.62424 -3.61705,-8.41634 -1.40892,-3.09659 -2.83761,-6.18382 -4.35178,-9.23062 -1.33411,-2.74669 -2.74956,-5.45378 -4.16767,-8.15772 -1.61137,-2.9962 -3.24181,-5.98176 -4.95477,-8.92138 -1.51339,-2.65213 -3.10551,-5.25923 -4.69991,-7.8631 -1.80662,-2.88272 -3.63159,-5.75355 -5.53592,-8.573 -1.68611,-2.54582 -3.44763,-5.04159 -5.21137,-7.53388 -1.99403,-2.7564 -4.00556,-5.49974 -6.09276,-8.18664 -1.85132,-2.42831 -3.77463,-4.80165 -5.69988,-7.17139 -2.17254,-2.61797 -4.36168,-5.22176 -6.62257,-7.76421 -2.00837,-2.3001 -4.085,-4.54048 -6.16325,-6.77723 -2.3415,-2.46805 -4.69862,-4.92084 -7.1233,-7.30761 -2.15662,-2.16175 -4.37738,-4.25939 -6.5995,-6.35331 -2.50007,-2.30725 -5.01473,-4.5982 -7.59257,-6.81866 -2.29541,-2.01374 -4.65031,-3.95956 -7.00651,-5.90134 -2.64775,-2.1362 -5.30897,-4.2552 -8.02842,-6.2998 -2.42392,-1.85706 -4.90293,-3.64208 -7.38278,-5.42324 -2.78363,-1.95582 -5.57957,-3.89355 -8.42877,-5.75306 -2.5419,-1.69203 -5.13383,-3.30875 -7.72646,-4.9214 -2.90732,-1.76674 -5.82571,-3.51464 -8.79201,-5.18103 -2.64852,-1.51963 -5.34202,-2.96072 -8.03593,-4.39771 -3.01818,-1.56984 -6.04615,-3.12016 -9.11648,-4.58603 -2.74357,-1.34053 -5.52682,-2.59966 -8.3102,-3.85473 -3.11568,-1.36608 -6.23984,-2.71203 -9.40068,-3.97086 -2.82652,-1.15547 -5.68719,-2.22718 -8.54774,-3.29475 -3.19949,-1.15629 -6.4061,-2.29192 -9.64353,-3.33818 -2.64726,-0.89531 -5.33753,-1.65629 -7.97837,-2.57162 -3.42839,-1.0632 -6.85623,-2.12821 -10.31864,-3.07649 -2.97618,-0.85017 -5.97823,-1.60897 -8.979507,-2.36441 -3.30765,-0.79578 -6.620094,-1.57026 -9.953294,-2.25253 -2.985875,-0.63943 -5.990625,-1.19031 -8.994519,-1.73718 -3.353172,-0.57445 -6.709715,-1.12733 -10.080835,-1.5869 -3.0217,-0.43984 -6.05635,-0.79015 -9.089883,-1.13648 -3.383899,-0.35072 -6.769732,-0.67965 -10.163927,-0.9144 -3.044208,-0.23827 -6.09539,-0.38645 -9.145195,-0.53067 -1.880033,-0.0625 -3.760065,-0.12492 -5.640097,-0.18738 17.344075,17.73238 34.688151,35.46477 52.032225,53.19715 z M -274.06691,23.347387 c 0.19132,3.626085 0.37745,7.252509 0.68917,10.870712 0.23167,3.086557 0.55807,6.165788 0.8873,9.243127 0.39735,3.378724 0.81635,6.754576 1.32906,10.118008 0.4328,3.022734 0.95503,6.032586 1.48086,9.040222 0.62077,3.344914 1.26294,6.68553 1.99768,10.007548 0.63239,2.98735 1.3534,5.95585 2.07767,8.921944 0.84133,3.296331 1.70375,6.586944 2.65735,9.85285 0.82928,2.938806 1.74562,5.852956 2.66516,8.764452 1.05829,3.23324 2.13724,6.45936 3.30552,9.65479 1.02251,2.87723 2.13022,5.72411 3.24095,8.56813 1.27053,3.15589 2.5612,6.30333 3.93897,9.41421 1.2112,2.80306 2.50541,5.57015 3.80244,8.3342 1.47717,3.06459 2.97389,6.11942 4.55508,9.13198 1.39454,2.71649 2.86964,5.39153 4.34723,8.06341 1.67728,2.95987 3.37342,5.90868 5.15115,8.80966 1.5718,2.61789 3.22103,5.18921 4.87269,7.75711 1.87001,2.84198 3.7581,5.67167 5.72435,8.44826 1.74205,2.5079 3.5585,4.96402 5.37696,7.41669 2.05448,2.71161 4.12617,5.40976 6.27238,8.04972 1.90465,2.38673 3.88007,4.71688 5.85728,7.04346 2.2299,2.56931 4.4761,5.12403 6.79283,7.61571 2.05887,2.25502 4.18451,4.44899 6.31178,6.63919 2.39553,2.41564 4.80634,4.81566 7.28333,7.1481 2.20401,2.11338 4.47047,4.16154 6.73843,6.20569 2.55066,2.25124 5.11551,4.48591 7.74175,6.64894 2.33933,1.96255 4.73686,3.85559 7.13545,5.74477 2.69435,2.07707 5.4018,4.13663 8.16587,6.12045 2.46451,1.80287 4.98226,3.53281 7.50098,5.25859 2.82632,1.89361 5.66453,3.76891 8.55413,5.56502 2.57869,1.6354 5.20579,3.19434 7.83347,4.7492 2.94572,1.70191 5.90208,3.38474 8.90452,4.98507 2.68151,1.46064 5.40629,2.8417 8.13135,4.21872 3.05219,1.50268 6.11375,2.98561 9.21579,4.38313 2.77256,1.27944 5.582956,2.47667 8.393406,3.66979 3.145194,1.29676 6.298413,2.57322 9.48635,3.76183 2.851375,1.09265 5.735082,2.1007 8.61855,3.10467 3.224319,1.08515 6.4553,2.14951 9.715082,3.12395 2.917568,0.901 5.861775,1.71546 8.805475,2.52586 3.289243,0.86879 6.58375,1.71639 9.901031,2.47229 2.970983,0.70537 5.962795,1.32264 8.953836,1.93589 3.33964,0.64859 6.683131,1.27567 10.043278,1.80968 3.011213,0.50659 6.037353,0.92394 9.06246,1.33734 3.37532,0.42556 6.753053,0.8294 10.14123,1.13929 3.0381884,0.30568 6.0853691,0.52115 9.1312428,0.73288 3.3960957,0.2006 6.7931594,0.37938 10.1944075,0.46371 0.6307214,0.021 1.2614427,0.0419 1.8921647,0.0629 -0.34139,-0.34904 -0.68278,-0.69808 -1.0241704,-1.04712 1.9635414,0.15243 3.9270834,0.30485 5.8906254,0.45728 0.348935,-0.26891 0.591297,-0.53726 0.09465,-0.80172 -0.104619,-0.19434 -0.906199,-0.68669 -0.492335,-0.65934 0.510411,0.017 1.020821,0.0339 1.531232,0.0509 -0.488897,-0.36935 0.450957,-0.0383 0.527987,-0.50137 0.839466,-0.83947 1.678933,-1.67893 2.518399,-2.5184 -2.951528,-3.01199 -5.872643,-6.05438 -8.915056,-8.97553 -46.244808,-45.28365 -92.497262,-90.55967 -138.737295,-135.84809 -42.77991,-43.73763 -85.55981,-87.475254 -128.33972,-131.212882 0.043,1.942164 0.16478,3.880924 0.26917,5.820434 -2.07113,-2.027913 -4.14226,-4.055826 -6.21338,-6.08374 0.0263,0.816535 0.0845,1.631691 0.12451,2.447632 -2.08378,-2.130412 -4.16756,-4.260823 -6.25134,-6.391235 0.0724,2.015926 0.10544,4.033557 0.23254,6.047119 -2.10026,-2.056437 -4.20052,-4.112874 -6.30078,-6.169312 0.0692,2.150757 0.13835,4.301514 0.20752,6.452271 z m 587.98926,0.113159 c 0.0367,-0.730959 0.0897,-1.461192 0.11291,-2.192749 -2.05049,2.005615 -4.10099,4.01123 -6.15148,6.016846 0.11668,-2.045379 0.23607,-4.090637 0.28454,-6.139038 -45.25926,46.219871 -90.51087,92.447385 -135.77491,138.662485 -46.79085,45.76631 -93.581702,91.53263 -140.37255,137.29894 0.994059,0.99406 1.988118,1.98812 2.982178,2.98218 0.152382,0.2948 0.663104,0.14527 0.99909,0.16087 0.20842,0.0598 1.120713,-0.18074 0.809494,0.10073 -0.302812,0.29618 -0.605625,0.59236 -0.908438,0.88854 0.250548,0.31289 0.524289,0.56311 0.947149,0.41044 1.689207,-0.12937 3.378414,-0.25874 5.067622,-0.3881 -0.334677,0.3418 -0.669353,0.6836 -1.004029,1.0254 3.629408,-0.11098 7.25904,-0.21677 10.883231,-0.44834 3.090933,-0.16333 6.176651,-0.42136 9.26053,-0.68241 3.386725,-0.32251 6.771061,-0.66672 10.145062,-1.1048 3.031533,-0.36573 6.052131,-0.82138 9.070628,-1.28045 3.357887,-0.54646 6.711937,-1.11445 10.049418,-1.7756 3.000582,-0.56618 5.984325,-1.22118 8.965713,-1.87962 3.314182,-0.76818 6.623112,-1.55757 9.909372,-2.43867 2.95638,-0.76402 5.89005,-1.61563 8.82115,-2.47045 3.25592,-0.98639 6.50518,-1.99362 9.7257,-3.09095 2.89917,-0.95857 5.76983,-2.00305 8.63775,-3.05053 3.18324,-1.2003 6.35847,-2.42095 9.49905,-3.72957 2.82918,-1.14887 5.62424,-2.38154 8.41634,-3.61705 3.09658,-1.40892 6.18381,-2.83761 9.23062,-4.35178 2.74669,-1.33411 5.45378,-2.74956 8.15771,-4.16767 2.9962,-1.61137 5.98177,-3.24181 8.92138,-4.95477 2.65213,-1.51339 5.25924,-3.10551 7.86311,-4.69991 2.88271,-1.80662 5.75354,-3.63159 8.57299,-5.53592 2.54582,-1.68611 5.0416,-3.44763 7.53389,-5.21137 2.75639,-1.99403 5.49974,-4.00556 8.18663,-6.09276 2.42832,-1.85132 4.80165,-3.77463 7.1714,-5.69988 2.61797,-2.17254 5.22176,-4.36168 7.7642,-6.62257 2.30011,-2.00837 4.54049,-4.085 6.77723,-6.16325 2.46805,-2.3415 4.92085,-4.69862 7.30762,-7.1233 2.16175,-2.15662 4.25938,-4.37738 6.3533,-6.5995 2.30726,-2.50007 4.59821,-5.01473 6.81867,-7.59257 2.01373,-2.29541 3.95956,-4.65031 5.90134,-7.00651 2.13619,-2.64775 4.25519,-5.30897 6.2998,-8.02842 1.85705,-2.42392 3.64207,-4.90293 5.42324,-7.38278 1.95581,-2.78363 3.89355,-5.57957 5.75306,-8.42877 1.69202,-2.5419 3.30875,-5.13383 4.9214,-7.72646 1.76674,-2.90732 3.51464,-5.82571 5.18103,-8.79201 1.51962,-2.64852 2.96071,-5.34202 4.39771,-8.03593 1.56983,-3.01818 3.12015,-6.04615 4.58603,-9.11648 1.34053,-2.74357 2.59965,-5.52682 3.85472,-8.3102 1.36609,-3.11568 2.71203,-6.23984 3.97086,-9.40068 1.15547,-2.82652 2.22719,-5.68719 3.29475,-8.54774 1.15629,-3.19949 2.29192,-6.4061 3.33819,-9.64353 0.9653,-2.896942 1.84481,-5.822386 2.72018,-8.747436 0.94142,-3.269168 1.86175,-6.544081 2.69087,-9.843806 0.77093,-2.954619 1.45429,-5.932 2.1336,-8.908706 0.72238,-3.324494 1.42334,-6.65331 2.03165,-10.000838 0.57316,-2.99925 1.05731,-6.015425 1.53755,-9.030639 0.50014,-3.365078 0.97863,-6.733048 1.36348,-10.113528 0.37287,-3.030676 0.65587,-6.072328 0.93494,-9.11277 0.27564,-3.390855 0.52951,-6.783159 0.68919,-10.181728 0.16989,-2.777957 0.21276,-5.561542 0.31909,-8.342316 -2.12524,2.078695 -4.25049,4.157389 -6.37573,6.236084 0.13574,-2.118745 0.17234,-4.241883 0.25098,-6.363159 -2.08407,2.128499 -4.16814,4.256999 -6.2522,6.385498 z M 28.851426,300.28709 c 0.581854,0.12371 0.208302,-0.36284 0,0 z m -6.074096,-0.008 c 0.07162,0.0398 0.0089,-0.0525 0,0 z m 0.328613,1.81153 c 1.697059,0.0701 3.394126,0.12594 5.091276,0.0262 0.684475,0.11204 0.236651,-0.23099 -0.041,-0.50563 -0.410681,-0.41987 -0.821362,-0.83975 -1.232042,-1.25962 -0.70516,0 -1.410319,0 -2.115478,0 -0.567587,0.57967 -1.135173,1.15935 -1.702759,1.73902 z"
       id="path6134"
       inkscape:connector-curvature="0"
       transform="matrix(0.26458333,0,0,0.26458333,0,283.77081)" />
    <path
       style="fill:none;stroke:#000000;stroke-width:0.29448724;stroke-linecap:butt;stroke-linejoin:miter;stroke-miterlimit:4;stroke-dasharray:none;stroke-opacity:1"
       d="m 1.2529762,289.62179 c 0,1.87184 0,3.74395 0,5.61634"
       id="path3751"
       inkscape:connector-curvature="0"
       inkscape:path-effect="#path-effect3753"
       inkscape:original-d="m 1.2529762,289.62179 c 3.088e-4,1.87184 3.088e-4,3.74395 0,5.61634" />
    <path
       style="fill:none;stroke:#000000;stroke-width:0.29448724;stroke-linecap:butt;stroke-linejoin:miter;stroke-miterlimit:4;stroke-dasharray:none;stroke-opacity:1"
       d="m 6.8117989,289.62179 c 0,1.87184 0,3.74395 0,5.61634"
       id="path3751-7"
       inkscape:connector-curvature="0"
       inkscape:path-effect="#path-effect3753-2"
       inkscape:original-d="m 6.8117989,289.62179 c 3.089e-4,1.87184 3.089e-4,3.74395 0,5.61634" />
    <path
       style="fill:none;stroke:#000000;stroke-width:0.29448724;stroke-linecap:butt;stroke-linejoin:miter;stroke-miterlimit:4;stroke-dasharray:none;stroke-opacity:1"
       d="m 2.4882701,290.18343 c 0,1.49746 0,2.99516 0,4.49306"
       id="path3751-1"
       inkscape:connector-curvature="0"
       inkscape:path-effect="#path-effect3753-21"
       inkscape:original-d="m 2.4882701,290.18343 c 3.089e-4,1.49746 3.089e-4,2.99516 0,4.49306" />
    <path
       style="fill:none;stroke:#000000;stroke-width:0.29448724;stroke-linecap:butt;stroke-linejoin:miter;stroke-miterlimit:4;stroke-dasharray:none;stroke-opacity:1"
       d="m 5.576505,290.18343 c 0,1.49746 0,2.99516 0,4.49306"
       id="path3751-1-0"
       inkscape:connector-curvature="0"
       inkscape:path-effect="#path-effect3753-21-5"
       inkscape:original-d="m 5.576505,290.18343 c 3.088e-4,1.49746 3.088e-4,2.99516 0,4.49306" />
    <path
       style="fill:none;stroke:#000000;stroke-width:0.29448724;stroke-linecap:butt;stroke-linejoin:miter;stroke-miterlimit:4;stroke-dasharray:none;stroke-opacity:1"
       d="m 4.0323876,290.18343 c 0,1.68464 0,3.36954 0,5.0547"
       id="path3751-1-7"
       inkscape:connector-curvature="0"
       inkscape:path-effect="#path-effect3753-21-2"
       inkscape:original-d="m 4.0323876,290.18343 c 3.089e-4,1.68464 3.089e-4,3.36954 0,5.0547" />
    <path
       style="fill:none;stroke:#000000;stroke-width:0.29448724;stroke-linecap:round;stroke-linejoin:bevel;stroke-miterlimit:4;stroke-dasharray:none;stroke-opacity:1"
       d="m 1.2529762,295.23813 c 1.787482,1.0507 3.6315,1.19393 5.5588229,0"
       id="path4634"
       inkscape:connector-curvature="0"
       sodipodi:nodetypes="cc" />
    <path
       style="fill:none;stroke:#000000;stroke-width:0.29448724;stroke-linecap:square;stroke-linejoin:miter;stroke-miterlimit:4;stroke-dasharray:none;stroke-opacity:1"
       d="M 1.2339599,289.62179 H 6.8117991"
       id="path4636"
       inkscape:connector-curvature="0" />
    <path
       style="fill:none;stroke:#000000;stroke-width:0.29448724;stroke-linecap:butt;stroke-linejoin:miter;stroke-miterlimit:4;stroke-dasharray:none;stroke-opacity:1"
       d="M 0.63532917,289.06017 H 7.4294458"
       id="path4638"
       inkscape:connector-curvature="0" />
    <path
       style="fill:none;stroke:#000000;stroke-width:0.29448724;stroke-linecap:butt;stroke-linejoin:miter;stroke-miterlimit:4;stroke-dasharray:none;stroke-opacity:1"
       d="m 1.2529762,289.06017 v -0.56164 h 5.5588229 v 0.56164"
       id="path4640"
       inkscape:connector-curvature="0" />
    <path
       style="opacity:1;fill:#cccccc;fill-opacity:0.34078214;stroke:#afc6e9;stroke-width:0.01958027;stroke-linecap:round;stroke-linejoin:round;stroke-miterlimit:4;stroke-dasharray:none;stroke-opacity:1"
       d="m 3.6250034,295.90982 c -0.3775719,-0.0387 -0.814756,-0.14241 -1.211475,-0.28732 -0.254355,-0.0929 -0.6970371,-0.29581 -0.8880729,-0.40703 l -0.1180675,-0.0687 v -2.6889 -2.6889 h 2.6180184 2.6180181 v 2.69704 2.69705 l -0.1694011,0.0958 c -0.4614886,0.26106 -1.1197282,0.50753 -1.5862111,0.59393 -0.4044828,0.0749 -0.8793378,0.0964 -1.2628089,0.057 z m 0.5749374,-3.20016 v -2.52997 H 4.0356729 3.8714051 v 2.52997 2.52996 H 4.0356729 4.1999408 Z M 2.65993,292.42959 v -2.2499 H 2.4956622 2.3313943 v 2.2499 2.24989 H 2.4956622 2.65993 Z m 3.0800215,0 v -2.2499 H 5.5756836 5.4114161 v 2.2499 2.24989 h 0.1642675 0.1642679 z"
       id="path6201"
       inkscape:connector-curvature="0" />
    <path
       style="opacity:1;fill:#cccccc;fill-opacity:0.34078214;stroke:#afc6e9;stroke-width:0.01958027;stroke-linecap:round;stroke-linejoin:round;stroke-miterlimit:4;stroke-dasharray:none;stroke-opacity:1"
       d="m 1.407388,288.77935 v -0.1307 h 2.6180184 2.6180181 v 0.1307 0.13069 H 4.0254064 1.407388 Z"
       id="path6203"
       inkscape:connector-curvature="0" />
    <path
       style="opacity:1;fill:#999999;fill-opacity:1;stroke:#afc6e9;stroke-width:0.0012923;stroke-linecap:round;stroke-linejoin:round;stroke-miterlimit:4;stroke-dasharray:none;stroke-opacity:1"
       d="m 3.5848067,295.89267 c -0.3940968,-0.05 -0.8024019,-0.1508 -1.1799321,-0.29137 -0.2526992,-0.0941 -0.6813014,-0.28893 -0.8588857,-0.39043 l -0.1180676,-0.0675 v -2.6779 -2.67789 h 2.5974851 2.5974847 v 2.68794 2.68795 l -0.1767848,0.0949 c -0.561547,0.3016 -1.1778682,0.51916 -1.7225618,0.60807 -0.2159448,0.0353 -0.9365014,0.0518 -1.1387378,0.0262 z m 0.6254009,-3.18301 v -2.5393 H 4.0356729 3.8611385 l -0.00528,2.52063 c -0.0029,1.38634 -7.411e-4,2.53147 0.00481,2.54472 0.00738,0.0176 0.055629,0.0226 0.1798134,0.0187 l 0.1697251,-0.005 z m -1.5400107,-0.28007 v -2.25923 H 2.4956622 2.3211278 l -0.00528,2.24056 c -0.0029,1.2323 -7.411e-4,2.2514 0.00481,2.26465 0.00738,0.0176 0.055636,0.0226 0.1798184,0.0187 l 0.169725,-0.005 z m 3.0800214,0 v -2.25923 H 5.5756836 5.4011492 l -0.00528,2.24056 c -0.0029,1.2323 -7.412e-4,2.2514 0.00481,2.26465 0.00738,0.0176 0.055635,0.0226 0.179818,0.0187 l 0.1697251,-0.005 z"
       id="path7703"
       inkscape:connector-curvature="0" />
    <path
       style="opacity:1;fill:#b3b3b3;fill-opacity:1;stroke:#afc6e9;stroke-width:0.0012923;stroke-linecap:round;stroke-linejoin:round;stroke-miterlimit:4;stroke-dasharray:none;stroke-opacity:1"
       d="m 1.4279213,288.77935 v -0.11203 h 2.5974851 2.5974847 v 0.11203 0.11202 H 4.0254064 1.4279213 Z"
       id="path7705"
       inkscape:connector-curvature="0" />
    <g
       id="g14403"
       transform="translate(0,0.89719077)">
      <path
         inkscape:connector-curvature="0"
         id="path7707"
         d="m 3.5986975,294.97946 c -0.544125,-0.0452 -1.3388841,-0.30014 -1.9541056,-0.62686 L 1.435313,294.24146 v -2.66576 -2.66577 h 2.5844462 2.5844462 v 2.67815 2.67815 l -0.2612733,0.13595 c -0.4777379,0.2486 -1.103661,0.46662 -1.5514341,0.5404 -0.2628974,0.0433 -0.8839992,0.0625 -1.1928005,0.0369 z m 0.6172178,-3.17282 0.00741,-2.55597 -0.1816364,0.008 -0.1816367,0.008 -0.00741,2.53326 c -0.00587,2.00887 1.365e-4,2.53775 0.029039,2.55497 0.020046,0.0119 0.1017823,0.0186 0.1816388,0.0148 l 0.1451937,-0.007 z M 2.6839778,291.52139 V 289.2532 H 2.4952261 2.3064744 v 2.26901 2.26902 l 0.065337,0.008 c 0.035936,0.005 0.1208738,0.004 0.1887517,-8.2e-4 l 0.1234145,-0.009 v -2.26819 z m 3.0781046,0 V 289.2532 H 5.5733307 5.384579 v 2.26901 2.26902 l 0.065337,0.008 c 0.035935,0.005 0.1208735,0.004 0.1887517,-8.2e-4 l 0.1234145,-0.009 v -2.26819 z"
         style="opacity:1;fill:#b3b3b3;fill-opacity:1;stroke:#afc6e9;stroke-width:0.00182759;stroke-linecap:round;stroke-linejoin:round;stroke-miterlimit:4;stroke-dasharray:none;stroke-opacity:1" />
    </g>
    <path
       style="opacity:1;fill:#b3b3b3;fill-opacity:1;stroke:#afc6e9;stroke-width:0.00182759;stroke-linecap:round;stroke-linejoin:round;stroke-miterlimit:4;stroke-dasharray:none;stroke-opacity:1"
       d="m 1.435313,288.77732 v -0.10562 h 2.5844462 2.5844462 v 0.10562 0.10562 H 4.0197592 1.435313 Z"
       id="path7709"
       inkscape:connector-curvature="0" />
    <path
       style="opacity:1;fill:#b3b3b3;fill-opacity:1;stroke:#afc6e9;stroke-width:0.00182759;stroke-linecap:round;stroke-linejoin:round;stroke-miterlimit:4;stroke-dasharray:none;stroke-opacity:1"
       d="m 1.435313,288.77732 v -0.10562 h 2.5844462 2.5844462 v 0.10562 0.10562 H 4.0197592 1.435313 Z"
       id="path7711"
       inkscape:connector-curvature="0" />
  </g>
</svg>
